<svg version="1.1" id="Layer_1" xmlns="http://www.w3.org/2000/svg" xmlns:xlink="http://www.w3.org/1999/xlink" x="0px" y="0px"
	 width="100%" viewBox="0 0 1920 544" enable-background="new 0 0 1920 544" xml:space="preserve">
<path fill="#DDFAFD" opacity="1.000000" stroke="none" 
	d="
M1400.000000,545.000000 
	C933.333313,545.000000 467.166656,545.000000 1.000000,545.000000 
	C1.000000,363.666656 1.000000,182.333328 1.000000,1.000000 
	C641.000000,1.000000 1281.000000,1.000000 1921.000000,1.000000 
	C1921.000000,182.333328 1921.000000,363.666656 1921.000000,545.000000 
	C1747.500000,545.000000 1574.000000,545.000000 1400.000000,545.000000 
M477.731750,105.834000 
	C460.530365,97.370239 442.266602,92.122513 423.290253,90.565681 
	C380.990967,87.095413 342.391418,97.932755 308.449829,123.586037 
	C272.538605,150.727997 251.485260,186.868774 244.614639,231.425735 
	C240.737335,256.570526 242.280609,281.273743 249.913559,305.435944 
	C262.059692,343.884735 284.587921,374.712585 318.899292,396.412933 
	C357.998474,421.141266 400.086151,429.135712 445.387665,418.458801 
	C475.046753,411.468567 500.966675,397.548462 522.754822,376.210114 
	C551.792480,347.772003 568.485229,313.167236 572.594971,272.819702 
	C575.476868,244.526337 571.323608,217.008499 559.926697,190.831207 
	C543.260010,152.549927 516.230347,124.127403 477.731750,105.834000 
M766.422363,319.358002 
	C769.999756,319.358002 773.577209,319.358002 777.354065,319.358002 
	C777.354065,312.363220 777.083496,306.359955 777.444092,300.394867 
	C777.708252,296.026306 776.395203,294.680573 771.908081,294.740479 
	C751.247620,295.016266 730.581238,294.837006 709.919312,295.048859 
	C706.023926,295.088776 704.525513,293.978058 704.651978,289.994843 
	C704.863342,283.336823 704.821655,276.660217 704.580933,270.002472 
	C704.443237,266.193909 705.482727,264.776520 709.640686,264.840942 
	C726.301025,265.099091 742.967712,264.953033 759.632019,264.956329 
	C761.408691,264.956696 763.185303,264.956390 765.443970,264.956390 
	C765.443970,258.176544 765.257446,252.033813 765.511963,245.909393 
	C765.671631,242.068039 764.567749,240.709183 760.479126,240.768250 
	C743.651611,241.011261 726.817200,240.770096 709.989075,240.990479 
	C705.957397,241.043274 704.289795,240.114914 704.530884,235.784836 
	C704.882446,229.470840 704.878235,223.115021 704.601257,216.795624 
	C704.408264,212.392059 705.991577,211.089355 710.356689,211.148285 
	C729.684448,211.409195 749.016663,211.355255 768.347229,211.386444 
	C770.283264,211.389572 772.219604,211.197922 774.184265,211.095169 
	C774.184265,202.785797 774.184265,195.031067 774.184265,186.961365 
	C741.019592,186.961365 708.143372,186.961365 675.111816,186.961365 
	C675.111816,231.189987 675.111816,275.059235 675.111816,318.823456 
	C675.822937,319.017883 676.139709,319.179779 676.456848,319.180511 
	C706.119019,319.249695 735.781189,319.306549 766.422363,319.358002 
M1490.422607,223.499771 
	C1490.422241,237.158371 1490.746216,250.828522 1490.259399,264.469788 
	C1490.068848,269.811676 1488.861450,275.439362 1486.722778,280.326691 
	C1481.256958,292.817261 1469.999634,295.602966 1457.789062,295.387756 
	C1440.841431,295.089050 1430.607300,285.289703 1429.111694,268.414001 
	C1428.759644,264.442261 1428.843628,260.425354 1428.850708,256.429443 
	C1428.888916,234.775513 1428.985229,213.121704 1428.996948,191.467804 
	C1428.998047,189.519028 1429.952759,186.700180 1426.397827,186.678741 
	C1417.105347,186.622726 1407.812378,186.659866 1398.075439,186.659866 
	C1398.075439,195.946564 1397.915894,204.591873 1398.106934,213.229446 
	C1398.580811,234.665955 1398.585083,256.141083 1400.016113,277.517822 
	C1400.903687,290.777710 1407.923828,301.693542 1418.850952,309.509430 
	C1435.873901,321.685303 1454.987549,323.847351 1475.026001,320.095184 
	C1488.586792,317.555969 1500.764526,312.213837 1509.425903,300.814178 
	C1517.483032,290.209595 1520.793457,277.954254 1520.922119,264.900055 
	C1521.145386,242.249008 1520.935181,219.593811 1520.931152,196.940353 
	C1520.929443,186.576889 1520.955933,186.588440 1510.374268,186.625153 
	C1503.796753,186.647964 1497.219116,186.629395 1490.422729,186.629395 
	C1490.422729,199.202026 1490.422729,210.850861 1490.422607,223.499771 
M940.252075,294.240845 
	C937.967651,292.116180 935.683289,289.991547 933.494202,287.955566 
	C909.199097,303.152863 883.056458,298.879089 881.233948,279.036255 
	C883.234924,279.036255 885.184692,279.035400 887.134521,279.036377 
	C905.967163,279.045929 924.799805,279.080170 943.632446,279.057068 
	C956.294250,279.041534 956.694702,278.983032 955.989929,266.288879 
	C954.915894,246.945587 946.846191,231.574753 928.307556,223.611252 
	C914.521179,217.689133 900.226013,217.280624 885.891296,222.091110 
	C853.947937,232.810806 845.298279,263.673370 855.241333,290.288696 
	C860.944824,305.555634 872.743225,314.358734 888.340942,318.423859 
	C908.891479,323.779816 927.835938,320.868896 944.778076,307.637268 
	C949.730469,303.769470 949.615234,303.639038 944.941040,299.026917 
	C943.519775,297.624512 942.152161,296.167847 940.252075,294.240845 
M1283.444336,303.053680 
	C1305.980957,329.489227 1353.268433,323.893860 1368.535645,302.658051 
	C1363.364990,297.775238 1358.135864,292.837250 1353.005249,287.992188 
	C1339.866211,298.095917 1326.278564,300.603455 1311.861206,293.700867 
	C1306.354492,291.064453 1302.307983,286.391937 1301.503296,278.969879 
	C1304.148682,278.969879 1306.261719,278.972870 1308.374634,278.969421 
	C1329.190186,278.935242 1350.005859,278.914368 1370.821289,278.843903 
	C1373.012207,278.836487 1376.124634,279.558014 1375.800781,275.832642 
	C1375.056396,267.271179 1375.433472,258.260956 1372.785645,250.286118 
	C1366.431030,231.146744 1351.812256,221.865265 1332.033936,219.490601 
	C1304.458618,216.179779 1273.803101,233.315308 1272.268677,264.761841 
	C1271.595825,278.550415 1273.364014,291.636780 1283.444336,303.053680 
M1129.479004,261.260681 
	C1119.401978,262.127655 1109.105347,261.991516 1099.307617,264.134857 
	C1088.859375,266.420471 1080.614258,272.713776 1077.975952,284.104919 
	C1075.186768,296.147522 1078.584229,306.186920 1088.363159,313.726562 
	C1101.667480,323.984528 1125.133545,323.407471 1138.334473,312.784271 
	C1139.771240,311.628204 1141.286499,310.569946 1143.617920,308.829987 
	C1143.851685,313.075317 1144.010498,315.959503 1144.171753,318.889160 
	C1153.504028,318.889160 1162.407959,318.889160 1171.048462,318.889160 
	C1171.048462,297.038513 1171.522949,275.577698 1170.872070,254.151062 
	C1170.475830,241.108353 1164.712769,229.897873 1152.237183,224.495422 
	C1128.638062,214.276062 1105.760010,219.011505 1083.609131,229.870239 
	C1082.800903,230.266479 1081.971191,232.232864 1082.279175,233.034286 
	C1084.515991,238.856598 1087.042480,244.567612 1089.369751,250.059891 
	C1090.017212,250.174179 1090.209839,250.274445 1090.338623,250.220978 
	C1092.157104,249.465408 1093.962036,248.677383 1095.779663,247.919418 
	C1106.797241,243.324783 1118.216797,241.884995 1129.960693,244.026932 
	C1138.334717,245.554260 1142.734619,251.940186 1141.742920,261.260681 
	C1138.039917,261.260681 1134.255371,261.260681 1129.479004,261.260681 
M1015.214050,284.377808 
	C1014.505981,282.699860 1013.749573,281.040466 1013.097229,279.341125 
	C1005.906128,260.607513 998.758667,241.856949 991.486816,223.154755 
	C991.022278,221.960190 989.647888,220.283569 988.660706,220.258652 
	C979.735046,220.033463 970.801208,220.126801 961.554993,220.126801 
	C961.677002,221.585968 961.549927,222.448196 961.835510,223.140091 
	C974.670532,254.232208 987.595581,285.287415 1000.310425,316.428436 
	C1001.365906,319.013550 1002.627991,319.551208 1005.050781,319.509613 
	C1012.212402,319.386536 1019.383972,319.247955 1026.537354,319.508636 
	C1029.934204,319.632477 1031.473511,318.413452 1032.751587,315.334442 
	C1043.378906,289.731934 1054.204102,264.211700 1064.923218,238.647232 
	C1067.382324,232.782623 1069.662842,226.843094 1072.363403,220.093674 
	C1062.981079,220.093674 1054.533813,219.955261 1046.101440,220.247681 
	C1044.881104,220.290024 1043.211670,222.183044 1042.629395,223.584869 
	C1034.934692,242.108322 1027.446777,260.717590 1019.755066,279.242279 
	C1018.864380,281.387451 1017.061523,283.153900 1015.214050,284.377808 
M1202.100830,261.500854 
	C1202.095215,270.823914 1201.763794,280.161499 1202.178467,289.465820 
	C1202.568481,298.218903 1204.546875,306.481995 1211.880493,312.584198 
	C1225.080811,323.567963 1247.482056,322.433441 1259.663208,314.389862 
	C1260.423584,313.887848 1261.234497,312.334259 1260.992065,311.619232 
	C1258.937500,305.561920 1256.643555,299.585785 1254.295410,293.245331 
	C1252.400513,294.129883 1251.113281,294.803192 1249.772949,295.345032 
	C1238.247192,300.004700 1231.311157,295.292206 1231.264648,282.781036 
	C1231.233032,274.290436 1231.213135,265.799744 1231.196045,257.309113 
	C1231.186890,252.714188 1231.194458,248.119217 1231.194458,243.195236 
	C1238.735474,243.195236 1245.530029,243.103470 1252.320190,243.238403 
	C1255.213501,243.295914 1256.613770,242.541702 1256.431396,239.316803 
	C1256.159058,234.501617 1256.103394,229.659317 1256.268799,224.839294 
	C1256.386230,221.415237 1254.830688,220.532883 1251.750122,220.635574 
	C1246.593872,220.807449 1241.406250,220.446335 1236.276123,220.859528 
	C1232.188599,221.188751 1231.039673,219.716690 1231.169556,215.842270 
	C1231.402100,208.903595 1231.234985,201.951508 1231.234985,195.118835 
	C1221.185059,195.118835 1211.848389,195.118835 1202.257202,195.118835 
	C1202.257202,202.176468 1202.029663,208.664398 1202.338135,215.126740 
	C1202.539551,219.344452 1201.488770,221.413559 1196.866455,220.796448 
	C1194.413330,220.468948 1191.844604,220.499969 1189.398438,220.854462 
	C1188.287720,221.015442 1186.496826,222.323593 1186.465454,223.165237 
	C1186.221436,229.736389 1186.330444,236.320633 1186.330444,243.502670 
	C1191.979004,243.502670 1196.870972,243.502670 1202.107910,243.502670 
	C1202.107910,249.579102 1202.107910,255.040100 1202.100830,261.500854 
M800.628174,207.500092 
	C800.628174,244.567886 800.628174,281.635681 800.628174,318.840912 
	C810.568604,318.840912 819.823914,318.840912 829.322815,318.840912 
	C829.444092,317.216553 829.622559,315.917969 829.625610,314.618958 
	C829.660645,299.466217 829.664246,284.313354 829.685913,269.160553 
	C829.725586,241.350769 829.806458,213.540878 829.726990,185.731461 
	C829.722351,184.105103 828.493958,181.096542 827.749084,181.069183 
	C818.848389,180.742004 809.931458,180.857971 800.626648,180.857971 
	C800.626648,189.881622 800.626648,198.190796 800.628174,207.500092 
M1858.039062,500.540039 
	C1860.349121,504.578369 1862.659302,508.616730 1865.456787,513.507202 
	C1869.402954,501.037628 1877.073853,493.185577 1889.016235,488.954132 
	C1876.913574,484.841187 1869.226196,476.848969 1864.964111,464.971252 
	C1860.813477,477.094788 1852.846191,484.662720 1841.705811,488.352570 
	C1847.125610,492.351959 1852.328857,496.191498 1858.039062,500.540039 
z"/>
<path fill="#0361FA" opacity="1.000000" stroke="none" 
	d="
M478.072113,105.990845 
	C516.230347,124.127403 543.260010,152.549927 559.926697,190.831207 
	C571.323608,217.008499 575.476868,244.526337 572.594971,272.819702 
	C568.485229,313.167236 551.792480,347.772003 522.754822,376.210114 
	C500.966675,397.548462 475.046753,411.468567 445.387665,418.458801 
	C400.086151,429.135712 357.998474,421.141266 318.899292,396.412933 
	C284.587921,374.712585 262.059692,343.884735 249.913559,305.435944 
	C242.280609,281.273743 240.737335,256.570526 244.614639,231.425735 
	C251.485260,186.868774 272.538605,150.727997 308.449829,123.586037 
	C342.391418,97.932755 380.990967,87.095413 423.290253,90.565681 
	C442.266602,92.122513 460.530365,97.370239 478.072113,105.990845 
M443.000000,235.000000 
	C443.000000,235.000000 442.962555,234.973404 442.302002,235.057693 
	C441.925690,235.777527 441.549347,236.497375 440.956726,237.724396 
	C440.589081,238.120712 440.221436,238.517029 439.178131,238.998611 
	C438.172058,240.399902 437.165985,241.801193 435.819824,243.698288 
	C435.174072,244.442581 434.528320,245.186859 433.208801,246.002975 
	C432.426239,247.254333 431.643677,248.505692 430.562531,250.168076 
	C430.350220,250.431885 430.137878,250.695709 429.245087,251.048065 
	C428.568573,252.114120 427.892059,253.180176 426.853485,254.710556 
	C426.213806,255.461548 425.574097,256.212555 424.265839,257.038971 
	C423.453796,258.252808 422.641724,259.466675 421.445587,261.152832 
	C420.887238,261.726288 420.328888,262.299774 419.111694,262.973785 
	C418.015045,264.536896 416.918396,266.100037 415.597137,267.968597 
	C415.597137,267.968597 415.300812,268.205109 414.693237,268.339386 
	C414.452759,268.879059 414.212250,269.418732 414.000000,270.000061 
	C414.000000,270.000061 413.956238,269.974854 413.276672,270.034241 
	C412.473999,271.279083 411.671295,272.523956 410.546936,274.166595 
	C410.320496,274.421600 410.094055,274.676605 409.195251,275.026917 
	C408.519775,276.086090 407.844299,277.145264 406.762878,278.689117 
	C405.479095,280.109711 404.195312,281.530304 402.236908,283.029327 
	C401.438354,284.277161 400.639801,285.524994 399.844086,286.859833 
	C399.844086,286.859833 399.757111,286.856201 399.105743,286.980408 
	C398.444580,288.024963 397.783417,289.069519 397.017517,290.028931 
	C397.017517,290.028931 397.118256,290.107452 396.587585,290.246704 
	C396.442505,290.564697 396.297394,290.882690 395.769165,291.654236 
	C395.166199,292.427643 394.563232,293.201080 393.256744,294.049927 
	C392.624634,295.158936 391.992523,296.267975 391.183228,297.704315 
	C391.183228,297.704315 390.904388,297.950836 390.231567,298.038849 
	C389.781281,299.378357 389.330963,300.717896 388.880646,302.057404 
	C390.262665,301.887238 391.644653,301.717072 393.958130,301.519226 
	C399.963013,301.541656 405.967896,301.564117 412.470520,302.274811 
	C416.195587,302.613556 419.920654,302.952301 424.422058,303.361633 
	C423.324677,306.293182 422.392853,308.709930 421.513580,311.145630 
	C419.444244,316.878143 417.400024,322.619720 415.269745,328.906311 
	C415.126556,329.244812 414.983398,329.583282 414.159821,330.073486 
	C413.527618,331.816284 412.895416,333.559082 412.126617,335.843872 
	C411.984283,336.187927 411.841949,336.531982 411.063416,337.103394 
	C408.013550,344.204315 404.832489,351.252563 401.954559,358.422455 
	C399.579773,364.338959 397.563690,370.399445 395.290405,376.934113 
	C395.131836,377.260132 394.973297,377.586182 394.131012,378.100372 
	C393.280640,380.433777 392.430267,382.767151 391.579926,385.100555 
	C392.188080,385.383301 392.796265,385.666077 393.404449,385.948822 
	C394.326324,384.444672 395.248230,382.940521 396.562531,380.953430 
	C397.110107,380.327911 397.657715,379.702362 398.630981,378.915649 
	C398.899231,378.727875 399.043549,378.470581 399.469299,377.620697 
	C400.950317,375.725616 402.431305,373.830536 404.587646,371.897766 
	C404.973419,371.193054 405.359192,370.488342 405.909515,369.900543 
	C405.909515,369.900543 405.777161,369.748108 406.478577,369.806946 
	C407.002991,368.891144 407.527374,367.975342 408.003784,366.998535 
	C408.003784,366.998535 408.064209,367.047852 408.748688,366.973572 
	C409.443512,365.913696 410.138336,364.853851 411.018555,363.270691 
	C411.388306,362.873322 411.758026,362.475952 412.791199,361.998566 
	C413.588593,360.782318 414.385986,359.566071 415.540466,357.864441 
	C416.051941,357.258606 416.563416,356.652740 417.711731,355.969147 
	C418.131012,355.296967 418.550293,354.624786 419.337036,353.428345 
	C420.592285,351.971008 421.847534,350.513641 423.778687,348.968170 
	C424.473175,347.920197 425.167633,346.872192 426.251862,345.346375 
	C427.171997,344.233398 428.092102,343.120422 429.674927,341.917755 
	C430.061371,341.209686 430.447845,340.501587 431.051697,339.277679 
	C431.446503,338.895020 431.841339,338.512360 432.842377,338.002716 
	C433.225403,337.330292 433.608398,336.657898 434.257874,335.605438 
	C434.430939,335.348267 434.619202,335.102783 435.533142,334.846313 
	C435.912445,334.110138 436.291718,333.373962 437.013397,332.154572 
	C437.674469,331.435699 438.335541,330.716858 439.661957,329.944031 
	C440.063110,329.237732 440.464233,328.531433 441.117096,327.276855 
	C441.775848,326.536957 442.434631,325.797058 443.779083,324.956451 
	C444.431885,323.869324 445.084686,322.782196 446.033447,321.250580 
	C446.386292,320.850189 446.739105,320.449829 447.731232,319.943359 
	C448.123474,319.255493 448.515717,318.567596 449.223785,317.331024 
	C450.188141,316.244324 451.152496,315.157623 452.789734,313.975677 
	C453.455872,312.921967 454.122040,311.868256 454.991180,310.942474 
	C454.991180,310.942474 454.803253,310.792816 455.489624,310.829010 
	C456.029175,309.946411 456.568726,309.063812 457.418762,307.791870 
	C457.633575,307.538727 457.851044,307.287933 458.723053,306.941559 
	C459.101837,306.235077 459.480621,305.528595 460.189453,304.292603 
	C461.142059,303.204315 462.094666,302.115997 463.726257,300.948212 
	C464.525574,299.694275 465.324921,298.440369 466.361053,296.748779 
	C466.550568,296.472931 466.777191,296.231964 467.692444,295.932098 
	C468.090485,295.239624 468.488525,294.547150 469.137482,293.276367 
	C470.144562,292.215607 471.151642,291.154846 472.826538,289.991333 
	C473.483276,288.933929 474.140015,287.876526 474.996796,286.958405 
	C474.996796,286.958405 474.809601,286.801514 475.522064,286.823639 
	C475.906677,286.096222 476.291321,285.368835 476.963745,284.194489 
	C477.325836,283.805939 477.687958,283.417389 478.744507,282.946289 
	C479.408234,281.859833 480.071991,280.773407 480.959503,279.302368 
	C481.121460,279.051514 481.313263,278.826019 482.239319,278.599976 
	C482.773895,277.668030 483.308441,276.736084 484.177490,275.303772 
	C484.830811,274.557037 485.484131,273.810303 486.814148,272.829315 
	C487.436676,271.623474 488.059174,270.417633 488.681671,269.211792 
	C487.497040,268.832977 486.316254,268.140808 485.127197,268.126312 
	C477.472900,268.032959 469.816833,268.088684 462.161346,268.093811 
	C458.938202,268.095978 455.715057,268.094147 451.892242,268.094147 
	C452.654510,266.017639 453.054779,264.964569 453.428650,263.902252 
	C455.113831,259.114075 456.791534,254.323273 458.549561,248.895294 
	C458.744843,248.286377 458.940125,247.677475 459.822754,246.920837 
	C460.428131,245.156403 461.033478,243.391983 461.719391,240.983246 
	C461.917175,240.367004 462.114929,239.750763 462.966461,238.961487 
	C463.738068,237.712555 464.709167,236.544128 465.250671,235.202362 
	C471.318695,220.165680 477.337952,205.109238 483.301758,190.030960 
	C483.706665,189.007217 483.560974,187.765701 483.671356,186.625458 
	C483.171234,186.412277 482.671143,186.199097 482.171051,185.985916 
	C480.801849,188.022491 479.432648,190.059067 477.690491,192.569397 
	C477.091095,193.357651 476.491730,194.145905 475.212189,195.020966 
	C474.536804,196.089111 473.861420,197.157272 472.981689,198.782700 
	C472.348755,199.540115 471.715820,200.297531 470.400146,201.111877 
	C470.010925,201.834869 469.621735,202.557861 468.867249,203.785461 
	C467.903259,204.852524 466.939301,205.919586 465.310486,207.039993 
	C464.832123,207.954681 464.353790,208.869370 463.543274,210.182465 
	C463.292908,210.420670 463.042542,210.658875 462.132019,210.996094 
	C461.374573,212.250061 460.617096,213.504044 459.511383,215.236572 
	C458.998291,215.818710 458.485199,216.400864 457.279236,217.030457 
	C456.155914,218.647736 455.032593,220.264999 453.962433,221.972153 
	C453.962433,221.972153 453.874359,221.916061 453.200378,222.000900 
	C452.171417,223.383087 451.142487,224.765289 449.851074,226.684860 
	C449.203156,227.439987 448.555237,228.195114 447.233459,229.028244 
	C446.431763,230.268814 445.630096,231.509399 444.834198,232.842056 
	C444.834198,232.842056 444.742493,232.852417 444.141205,232.977386 
	C443.751709,233.639191 443.362244,234.300980 443.000000,235.000000 
M355.401306,313.497467 
	C356.623169,312.018311 357.845032,310.539154 359.731567,308.959381 
	C360.421021,307.917694 361.110443,306.876007 362.278900,305.436188 
	C363.200775,304.304352 364.122620,303.172516 365.685272,301.934906 
	C366.058533,301.235748 366.431793,300.536621 367.099487,299.371094 
	C367.470428,298.968597 367.841370,298.566101 368.859467,298.015717 
	C369.642212,296.752411 370.424988,295.489105 371.612244,293.817963 
	C372.089935,293.226013 372.567596,292.634033 373.718140,291.963531 
	C374.403198,290.914673 375.088257,289.865814 376.156677,288.319519 
	C377.127655,287.233734 378.098633,286.147949 379.735840,284.945068 
	C380.393402,283.888733 381.050964,282.832367 382.055603,281.350922 
	C382.415588,280.937958 382.775574,280.524963 383.756470,279.975525 
	C384.143860,279.292328 384.531250,278.609161 385.274139,277.390900 
	C386.464142,275.869385 387.654144,274.347870 389.521362,272.809387 
	C390.053253,271.910583 390.585144,271.011810 391.452942,269.777771 
	C391.667938,269.543854 391.855682,269.289825 392.655518,268.913422 
	C393.051788,268.231140 393.448059,267.548828 394.234955,266.379120 
	C395.188538,265.280304 396.142151,264.181488 397.754974,262.955902 
	C398.412262,261.901001 399.069519,260.846100 400.161682,259.449066 
	C400.482819,259.001465 400.803955,258.553864 401.788483,257.996002 
	C402.454712,256.940308 403.120911,255.884598 404.247437,254.409622 
	C405.146912,253.254410 406.046417,252.099197 407.605621,250.893814 
	C408.137421,250.001541 408.669220,249.109283 409.586121,247.793076 
	C410.068481,247.205627 410.550842,246.618179 411.676941,245.964844 
	C412.081146,245.276962 412.485321,244.589081 413.348206,243.429901 
	C415.932526,240.315552 418.516846,237.201202 421.725616,233.960373 
	C422.121460,233.280533 422.517303,232.600693 423.297821,231.376617 
	C425.157410,229.205994 427.017029,227.035370 429.550232,224.840668 
	C429.923096,224.145554 430.295929,223.450424 431.087189,222.245819 
	C432.134247,220.839249 433.181305,219.432663 434.898224,217.890579 
	C435.044312,215.131180 435.044556,215.054581 431.548401,215.043365 
	C419.970917,215.006210 408.393311,215.029343 396.241669,215.029343 
	C398.293457,208.339584 399.923889,203.023697 401.755890,197.088287 
	C402.005402,196.486969 402.254913,195.885651 403.061981,194.930008 
	C405.197052,189.175720 407.332092,183.421432 409.621613,177.117523 
	C409.690613,176.743210 409.759613,176.368912 410.366913,175.759277 
	C410.634796,174.842224 410.902649,173.925171 411.322815,172.364990 
	C411.719666,171.341644 412.116516,170.318298 413.085785,168.962891 
	C416.338409,160.888489 419.657196,152.839691 422.800415,144.722931 
	C423.663025,142.495300 424.000366,140.064270 424.811554,137.011047 
	C425.373871,135.345978 425.936157,133.680923 427.153015,131.937500 
	C427.779938,130.578766 428.406860,129.220032 429.033752,127.861290 
	C428.386230,127.507248 427.738708,127.153214 427.091187,126.799179 
	C426.040131,128.497925 424.989075,130.196686 423.728668,132.340073 
	C423.578644,132.636414 423.378540,132.893799 422.437256,133.134842 
	C422.060577,133.851196 421.683868,134.567535 420.895508,135.803635 
	C390.195587,173.358093 359.495636,210.912552 328.795715,248.467010 
	C329.061584,249.000473 329.327484,249.533920 329.593384,250.067383 
	C342.392090,250.067383 355.190796,250.067383 369.211578,250.067383 
	C357.454712,279.527496 346.191986,307.749451 334.929260,335.971405 
	C335.316406,336.201660 335.703552,336.431915 336.090698,336.662170 
	C341.225220,330.530487 346.359741,324.398773 351.886841,318.094727 
	C352.128601,317.899384 352.242798,317.646454 352.484924,316.895081 
	C352.698395,316.631836 352.911896,316.368561 353.748230,315.999512 
	C354.157654,315.325012 354.567078,314.650543 355.401306,313.497467 
z"/>
<path fill="#050606" opacity="1.000000" stroke="none" 
	d="
M765.932861,319.361115 
	C735.781189,319.306549 706.119019,319.249695 676.456848,319.180511 
	C676.139709,319.179779 675.822937,319.017883 675.111816,318.823456 
	C675.111816,275.059235 675.111816,231.189987 675.111816,186.961365 
	C708.143372,186.961365 741.019592,186.961365 774.184265,186.961365 
	C774.184265,195.031067 774.184265,202.785797 774.184265,211.095169 
	C772.219604,211.197922 770.283264,211.389572 768.347229,211.386444 
	C749.016663,211.355255 729.684448,211.409195 710.356689,211.148285 
	C705.991577,211.089355 704.408264,212.392059 704.601257,216.795624 
	C704.878235,223.115021 704.882446,229.470840 704.530884,235.784836 
	C704.289795,240.114914 705.957397,241.043274 709.989075,240.990479 
	C726.817200,240.770096 743.651611,241.011261 760.479126,240.768250 
	C764.567749,240.709183 765.671631,242.068039 765.511963,245.909393 
	C765.257446,252.033813 765.443970,258.176544 765.443970,264.956390 
	C763.185303,264.956390 761.408691,264.956696 759.632019,264.956329 
	C742.967712,264.953033 726.301025,265.099091 709.640686,264.840942 
	C705.482727,264.776520 704.443237,266.193909 704.580933,270.002472 
	C704.821655,276.660217 704.863342,283.336823 704.651978,289.994843 
	C704.525513,293.978058 706.023926,295.088776 709.919312,295.048859 
	C730.581238,294.837006 751.247620,295.016266 771.908081,294.740479 
	C776.395203,294.680573 777.708252,296.026306 777.444092,300.394867 
	C777.083496,306.359955 777.354065,312.363220 777.354065,319.358002 
	C773.577209,319.358002 769.999756,319.358002 765.932861,319.361115 
z"/>
<path fill="#070808" opacity="1.000000" stroke="none" 
	d="
M1490.422607,222.999725 
	C1490.422729,210.850861 1490.422729,199.202026 1490.422729,186.629395 
	C1497.219116,186.629395 1503.796753,186.647964 1510.374268,186.625153 
	C1520.955933,186.588440 1520.929443,186.576889 1520.931152,196.940353 
	C1520.935181,219.593811 1521.145386,242.249008 1520.922119,264.900055 
	C1520.793457,277.954254 1517.483032,290.209595 1509.425903,300.814178 
	C1500.764526,312.213837 1488.586792,317.555969 1475.026001,320.095184 
	C1454.987549,323.847351 1435.873901,321.685303 1418.850952,309.509430 
	C1407.923828,301.693542 1400.903687,290.777710 1400.016113,277.517822 
	C1398.585083,256.141083 1398.580811,234.665955 1398.106934,213.229446 
	C1397.915894,204.591873 1398.075439,195.946564 1398.075439,186.659866 
	C1407.812378,186.659866 1417.105347,186.622726 1426.397827,186.678741 
	C1429.952759,186.700180 1428.998047,189.519028 1428.996948,191.467804 
	C1428.985229,213.121704 1428.888916,234.775513 1428.850708,256.429443 
	C1428.843628,260.425354 1428.759644,264.442261 1429.111694,268.414001 
	C1430.607300,285.289703 1440.841431,295.089050 1457.789062,295.387756 
	C1469.999634,295.602966 1481.256958,292.817261 1486.722778,280.326691 
	C1488.861450,275.439362 1490.068848,269.811676 1490.259399,264.469788 
	C1490.746216,250.828522 1490.422241,237.158371 1490.422607,222.999725 
z"/>
<path fill="#070808" opacity="1.000000" stroke="none" 
	d="
M940.506042,294.488464 
	C942.152161,296.167847 943.519775,297.624512 944.941040,299.026917 
	C949.615234,303.639038 949.730469,303.769470 944.778076,307.637268 
	C927.835938,320.868896 908.891479,323.779816 888.340942,318.423859 
	C872.743225,314.358734 860.944824,305.555634 855.241333,290.288696 
	C845.298279,263.673370 853.947937,232.810806 885.891296,222.091110 
	C900.226013,217.280624 914.521179,217.689133 928.307556,223.611252 
	C946.846191,231.574753 954.915894,246.945587 955.989929,266.288879 
	C956.694702,278.983032 956.294250,279.041534 943.632446,279.057068 
	C924.799805,279.080170 905.967163,279.045929 887.134521,279.036377 
	C885.184692,279.035400 883.234924,279.036255 881.233948,279.036255 
	C883.056458,298.879089 909.199097,303.152863 933.494202,287.955566 
	C935.683289,289.991547 937.967651,292.116180 940.506042,294.488464 
M907.687134,241.739822 
	C891.720398,241.146393 879.730774,249.779266 881.270447,260.712738 
	C896.439209,260.712738 911.601868,260.712738 926.805786,260.712738 
	C925.963867,249.892517 920.457947,244.347504 907.687134,241.739822 
z"/>
<path fill="#070808" opacity="1.000000" stroke="none" 
	d="
M1283.249512,302.755920 
	C1273.364014,291.636780 1271.595825,278.550415 1272.268677,264.761841 
	C1273.803101,233.315308 1304.458618,216.179779 1332.033936,219.490601 
	C1351.812256,221.865265 1366.431030,231.146744 1372.785645,250.286118 
	C1375.433472,258.260956 1375.056396,267.271179 1375.800781,275.832642 
	C1376.124634,279.558014 1373.012207,278.836487 1370.821289,278.843903 
	C1350.005859,278.914368 1329.190186,278.935242 1308.374634,278.969421 
	C1306.261719,278.972870 1304.148682,278.969879 1301.503296,278.969879 
	C1302.307983,286.391937 1306.354492,291.064453 1311.861206,293.700867 
	C1326.278564,300.603455 1339.866211,298.095917 1353.005249,287.992188 
	C1358.135864,292.837250 1363.364990,297.775238 1368.535645,302.658051 
	C1353.268433,323.893860 1305.980957,329.489227 1283.249512,302.755920 
M1324.466553,241.847763 
	C1311.258545,242.274933 1301.463379,250.268845 1301.724487,260.684296 
	C1316.692261,260.684296 1331.663330,260.684296 1346.646973,260.684296 
	C1346.213501,248.390060 1336.474487,241.891495 1324.466553,241.847763 
z"/>
<path fill="#070808" opacity="1.000000" stroke="none" 
	d="
M1129.974854,261.260681 
	C1134.255371,261.260681 1138.039917,261.260681 1141.742920,261.260681 
	C1142.734619,251.940186 1138.334717,245.554260 1129.960693,244.026932 
	C1118.216797,241.884995 1106.797241,243.324783 1095.779663,247.919418 
	C1093.962036,248.677383 1092.157104,249.465408 1090.338623,250.220978 
	C1090.209839,250.274445 1090.017212,250.174179 1089.369751,250.059891 
	C1087.042480,244.567612 1084.515991,238.856598 1082.279175,233.034286 
	C1081.971191,232.232864 1082.800903,230.266479 1083.609131,229.870239 
	C1105.760010,219.011505 1128.638062,214.276062 1152.237183,224.495422 
	C1164.712769,229.897873 1170.475830,241.108353 1170.872070,254.151062 
	C1171.522949,275.577698 1171.048462,297.038513 1171.048462,318.889160 
	C1162.407959,318.889160 1153.504028,318.889160 1144.171753,318.889160 
	C1144.010498,315.959503 1143.851685,313.075317 1143.617920,308.829987 
	C1141.286499,310.569946 1139.771240,311.628204 1138.334473,312.784271 
	C1125.133545,323.407471 1101.667480,323.984528 1088.363159,313.726562 
	C1078.584229,306.186920 1075.186768,296.147522 1077.975952,284.104919 
	C1080.614258,272.713776 1088.859375,266.420471 1099.307617,264.134857 
	C1109.105347,261.991516 1119.401978,262.127655 1129.974854,261.260681 
M1133.766235,297.433380 
	C1139.720459,294.295593 1142.828979,289.718353 1142.560425,282.629517 
	C1142.425415,279.068909 1141.966064,277.456573 1138.020386,277.654236 
	C1132.371338,277.937225 1126.676025,277.434601 1121.043213,277.848877 
	C1117.503418,278.109253 1113.862183,279.007935 1110.589966,280.387482 
	C1106.316040,282.189392 1104.701172,286.004547 1105.051025,290.596130 
	C1105.381348,294.933716 1108.091675,297.396545 1111.829712,298.942505 
	C1119.087280,301.944122 1126.158081,300.670197 1133.766235,297.433380 
z"/>
<path fill="#070708" opacity="1.000000" stroke="none" 
	d="
M1015.447815,284.736877 
	C1017.061523,283.153900 1018.864380,281.387451 1019.755066,279.242279 
	C1027.446777,260.717590 1034.934692,242.108322 1042.629395,223.584869 
	C1043.211670,222.183044 1044.881104,220.290024 1046.101440,220.247681 
	C1054.533813,219.955261 1062.981079,220.093674 1072.363403,220.093674 
	C1069.662842,226.843094 1067.382324,232.782623 1064.923218,238.647232 
	C1054.204102,264.211700 1043.378906,289.731934 1032.751587,315.334442 
	C1031.473511,318.413452 1029.934204,319.632477 1026.537354,319.508636 
	C1019.383972,319.247955 1012.212402,319.386536 1005.050781,319.509613 
	C1002.627991,319.551208 1001.365906,319.013550 1000.310425,316.428436 
	C987.595581,285.287415 974.670532,254.232208 961.835510,223.140091 
	C961.549927,222.448196 961.677002,221.585968 961.554993,220.126801 
	C970.801208,220.126801 979.735046,220.033463 988.660706,220.258652 
	C989.647888,220.283569 991.022278,221.960190 991.486816,223.154755 
	C998.758667,241.856949 1005.906128,260.607513 1013.097229,279.341125 
	C1013.749573,281.040466 1014.505981,282.699860 1015.447815,284.736877 
z"/>
<path fill="#060707" opacity="1.000000" stroke="none" 
	d="
M1202.104370,261.000977 
	C1202.107910,255.040100 1202.107910,249.579102 1202.107910,243.502670 
	C1196.870972,243.502670 1191.979004,243.502670 1186.330444,243.502670 
	C1186.330444,236.320633 1186.221436,229.736389 1186.465454,223.165237 
	C1186.496826,222.323593 1188.287720,221.015442 1189.398438,220.854462 
	C1191.844604,220.499969 1194.413330,220.468948 1196.866455,220.796448 
	C1201.488770,221.413559 1202.539551,219.344452 1202.338135,215.126740 
	C1202.029663,208.664398 1202.257202,202.176468 1202.257202,195.118835 
	C1211.848389,195.118835 1221.185059,195.118835 1231.234985,195.118835 
	C1231.234985,201.951508 1231.402100,208.903595 1231.169556,215.842270 
	C1231.039673,219.716690 1232.188599,221.188751 1236.276123,220.859528 
	C1241.406250,220.446335 1246.593872,220.807449 1251.750122,220.635574 
	C1254.830688,220.532883 1256.386230,221.415237 1256.268799,224.839294 
	C1256.103394,229.659317 1256.159058,234.501617 1256.431396,239.316803 
	C1256.613770,242.541702 1255.213501,243.295914 1252.320190,243.238403 
	C1245.530029,243.103470 1238.735474,243.195236 1231.194458,243.195236 
	C1231.194458,248.119217 1231.186890,252.714188 1231.196045,257.309113 
	C1231.213135,265.799744 1231.233032,274.290436 1231.264648,282.781036 
	C1231.311157,295.292206 1238.247192,300.004700 1249.772949,295.345032 
	C1251.113281,294.803192 1252.400513,294.129883 1254.295410,293.245331 
	C1256.643555,299.585785 1258.937500,305.561920 1260.992065,311.619232 
	C1261.234497,312.334259 1260.423584,313.887848 1259.663208,314.389862 
	C1247.482056,322.433441 1225.080811,323.567963 1211.880493,312.584198 
	C1204.546875,306.481995 1202.568481,298.218903 1202.178467,289.465820 
	C1201.763794,280.161499 1202.095215,270.823914 1202.104370,261.000977 
z"/>
<path fill="#070808" opacity="1.000000" stroke="none" 
	d="
M800.627441,207.000031 
	C800.626648,198.190796 800.626648,189.881622 800.626648,180.857971 
	C809.931458,180.857971 818.848389,180.742004 827.749084,181.069183 
	C828.493958,181.096542 829.722351,184.105103 829.726990,185.731461 
	C829.806458,213.540878 829.725586,241.350769 829.685913,269.160553 
	C829.664246,284.313354 829.660645,299.466217 829.625610,314.618958 
	C829.622559,315.917969 829.444092,317.216553 829.322815,318.840912 
	C819.823914,318.840912 810.568604,318.840912 800.628174,318.840912 
	C800.628174,281.635681 800.628174,244.567886 800.627441,207.000031 
z"/>
<path fill="#EDFDFF" opacity="1.000000" stroke="none" 
	d="
M1857.785522,500.285522 
	C1852.328857,496.191498 1847.125610,492.351959 1841.705811,488.352570 
	C1852.846191,484.662720 1860.813477,477.094788 1864.964111,464.971252 
	C1869.226196,476.848969 1876.913574,484.841187 1889.016235,488.954132 
	C1877.073853,493.185577 1869.402954,501.037628 1865.456787,513.507202 
	C1862.659302,508.616730 1860.349121,504.578369 1857.785522,500.285522 
z"/>
<path fill="#D7F5FD" opacity="1.000000" stroke="none" 
	d="
M411.033203,246.030746 
	C410.550842,246.618179 410.068481,247.205627 409.072083,248.046722 
	C408.020630,249.181564 407.483276,250.062775 406.945923,250.943970 
	C406.046417,252.099197 405.146912,253.254410 403.698975,254.694916 
	C402.475372,256.022217 401.800232,257.064240 401.125092,258.106262 
	C400.803955,258.553864 400.482819,259.001465 399.628540,259.698303 
	C398.428833,260.992584 397.762299,262.037628 397.095764,263.082672 
	C396.142151,264.181488 395.188538,265.280304 393.732574,266.691772 
	C392.825531,267.674805 392.420868,268.345245 392.016235,269.015686 
	C391.855682,269.289825 391.667938,269.543854 390.972229,270.008118 
	C389.942413,271.101105 389.393280,271.963745 388.844147,272.826355 
	C387.654144,274.347870 386.464142,275.869385 384.782471,277.724915 
	C383.905762,278.743256 383.520660,279.427612 383.135559,280.111969 
	C382.775574,280.524963 382.415588,280.937958 381.570801,281.654175 
	C380.413849,282.992310 379.741730,284.027222 379.069641,285.062134 
	C378.098633,286.147949 377.127655,287.233734 375.648041,288.646729 
	C374.441345,289.996643 373.743317,291.019348 373.045258,292.042053 
	C372.567596,292.634033 372.089935,293.226013 371.073669,294.065033 
	C369.760834,295.595917 368.986572,296.879761 368.212311,298.163605 
	C367.841370,298.566101 367.470428,298.968597 366.642761,299.673340 
	C365.805542,300.663971 365.425018,301.352325 365.044495,302.040680 
	C364.122620,303.172516 363.200775,304.304352 361.717896,305.701721 
	C360.460236,306.998138 359.763550,308.029083 359.066895,309.059998 
	C357.845032,310.539154 356.623169,312.018311 354.864502,313.766541 
	C353.926941,314.725525 353.526154,315.415436 353.125366,316.105316 
	C352.911896,316.368561 352.698395,316.631836 352.113220,317.147522 
	C351.411713,317.618378 351.329285,317.907410 351.494263,318.267090 
	C346.359741,324.398773 341.225220,330.530487 336.090698,336.662170 
	C335.703552,336.431915 335.316406,336.201660 334.929260,335.971405 
	C346.191986,307.749451 357.454712,279.527496 369.211578,250.067383 
	C355.190796,250.067383 342.392090,250.067383 329.593384,250.067383 
	C329.327484,249.533920 329.061584,249.000473 328.795715,248.467010 
	C359.495636,210.912552 390.195587,173.358093 421.386475,135.440796 
	C422.294403,134.422729 422.711365,133.767487 423.128296,133.112244 
	C423.378540,132.893799 423.578644,132.636414 424.260986,132.127533 
	C425.361725,131.948624 425.930084,131.982254 426.498474,132.015869 
	C425.936157,133.680923 425.373871,135.345978 424.389832,137.523895 
	C422.644409,141.205963 421.181641,144.325409 420.025146,147.554550 
	C417.440186,154.772339 415.007904,162.044785 412.513397,169.294968 
	C412.116516,170.318298 411.719666,171.341644 410.961670,172.770142 
	C410.343201,174.115051 410.085907,175.054825 409.828613,175.994598 
	C409.759613,176.368912 409.690613,176.743210 409.228973,177.513977 
	C406.725677,183.701736 404.615051,189.493042 402.504395,195.284332 
	C402.254913,195.885651 402.005402,196.486969 401.340485,197.530273 
	C398.979584,202.696060 397.024231,207.415817 395.091888,212.144989 
	C393.647491,215.680038 394.988922,216.920547 398.641632,216.877701 
	C408.427521,216.762909 418.216644,216.787216 428.002441,216.914047 
	C430.082184,216.940994 432.153290,217.637848 434.228394,218.026077 
	C433.181305,219.432663 432.134247,220.839249 430.590942,222.587234 
	C429.688660,223.574020 429.282654,224.219391 428.876648,224.864746 
	C427.017029,227.035370 425.157410,229.205994 422.792053,231.712555 
	C421.891235,232.727936 421.496185,233.407394 421.101135,234.086853 
	C418.516846,237.201202 415.932526,240.315552 412.808014,243.717255 
	C411.856293,244.679993 411.444763,245.355377 411.033203,246.030746 
z"/>
<path fill="#D7F5FD" opacity="1.000000" stroke="none" 
	d="
M458.071167,307.039429 
	C457.851044,307.287933 457.633575,307.538727 456.953308,308.033813 
	C455.926300,309.114777 455.364777,309.953796 454.803223,310.792786 
	C454.803253,310.792816 454.991180,310.942474 454.579407,310.968750 
	C453.484009,312.020325 452.800446,313.045624 452.116852,314.070923 
	C451.152496,315.157623 450.188141,316.244324 448.757629,317.679291 
	C447.891632,318.701508 447.491760,319.375458 447.091919,320.049438 
	C446.739105,320.449829 446.386292,320.850189 445.578461,321.583740 
	C444.446777,322.963654 443.770111,324.010437 443.093445,325.057190 
	C442.434631,325.797058 441.775848,326.536957 440.681091,327.613403 
	C439.828979,328.632660 439.412811,329.315338 438.996643,329.998016 
	C438.335541,330.716858 437.674469,331.435699 436.557190,332.513184 
	C435.674896,333.537506 435.248810,334.203247 434.822693,334.869019 
	C434.619202,335.102783 434.430939,335.348267 433.807983,335.833405 
	C432.984100,336.750824 432.610138,337.440277 432.236176,338.129730 
	C431.841339,338.512360 431.446503,338.895020 430.636353,339.618286 
	C429.818115,340.641754 429.415161,341.324615 429.012207,342.007477 
	C428.092102,343.120422 427.171997,344.233398 425.737488,345.659729 
	C424.516327,347.000824 423.809570,348.028564 423.102783,349.056274 
	C421.847534,350.513641 420.592285,351.971008 418.836792,353.731018 
	C417.916016,354.704773 417.495422,355.375824 417.074890,356.046875 
	C416.563416,356.652740 416.051941,357.258606 415.036682,358.128296 
	C413.731171,359.620972 412.929474,360.849792 412.127777,362.078583 
	C411.758026,362.475952 411.388306,362.873322 410.609009,363.619385 
	C409.487701,364.994690 408.775970,366.021271 408.064209,367.047852 
	C408.064209,367.047852 408.003784,366.998535 407.725891,367.107422 
	C406.891022,368.060242 406.334106,368.904175 405.777161,369.748108 
	C405.777161,369.748108 405.909515,369.900543 405.536346,369.928192 
	C404.746216,370.615692 404.329254,371.275574 403.912292,371.935486 
	C402.431305,373.830536 400.950317,375.725616 399.013885,377.909607 
	C398.440735,378.491302 398.322998,378.784058 398.205292,379.076843 
	C397.657715,379.702362 397.110107,380.327911 396.050537,380.949463 
	C395.297302,379.934418 395.056030,378.923309 394.814758,377.912201 
	C394.973297,377.586182 395.131836,377.260132 395.643188,376.499878 
	C397.730682,372.117371 399.593079,368.219513 401.174164,364.210663 
	C404.756256,355.128143 408.199768,345.990967 411.699646,336.876038 
	C411.841949,336.531982 411.984283,336.187927 412.514771,335.447754 
	C413.548706,333.341675 414.194458,331.631714 414.840210,329.921783 
	C414.983398,329.583282 415.126556,329.244812 415.603394,328.454407 
	C418.039062,323.144531 420.201660,318.311707 422.231628,313.423798 
	C428.218323,299.008301 429.429169,301.309174 413.819183,301.002533 
	C413.207764,300.990540 412.588440,301.382690 411.972778,301.586548 
	C405.967896,301.564117 399.963013,301.541656 393.242981,301.312592 
	C391.986664,300.054260 391.445526,299.002533 390.904388,297.950836 
	C390.904388,297.950836 391.183228,297.704315 391.570007,297.416016 
	C392.624603,296.076630 393.292419,295.025543 393.960266,293.974487 
	C394.563232,293.201080 395.166199,292.427643 396.222595,291.353333 
	C396.823395,290.737396 396.970825,290.422424 397.118256,290.107452 
	C397.118256,290.107452 397.017517,290.028931 397.389160,289.996643 
	C398.426270,288.928314 399.091705,287.892273 399.757111,286.856201 
	C399.757111,286.856201 399.844086,286.859833 400.167480,286.764343 
	C401.297791,285.429565 402.104675,284.190247 402.911530,282.950897 
	C404.195312,281.530304 405.479095,280.109711 407.285828,278.370972 
	C408.495087,277.012421 409.181366,275.972015 409.867615,274.931610 
	C410.094055,274.676605 410.320496,274.421600 411.033386,273.924683 
	C412.332001,272.446777 413.144104,271.210815 413.956238,269.974854 
	C413.956238,269.974854 414.000000,270.000061 414.278992,269.894836 
	C414.805603,269.261414 415.053223,268.733276 415.300812,268.205109 
	C415.300812,268.205109 415.597137,267.968597 416.038269,267.784912 
	C417.576447,266.025269 418.673523,264.449280 419.770569,262.873260 
	C420.328888,262.299774 420.887238,261.726288 421.961487,260.879150 
	C423.296417,259.391510 424.115417,258.177521 424.934387,256.963562 
	C425.574097,256.212555 426.213806,255.461548 427.354065,254.400330 
	C428.544922,253.046585 429.235229,252.003052 429.925568,250.959518 
	C430.137878,250.695709 430.350220,250.431885 431.036926,249.918121 
	C432.301758,248.422501 433.092163,247.176819 433.882599,245.931152 
	C434.528320,245.186859 435.174072,244.442581 436.319580,243.389587 
	C437.830811,241.691727 438.842316,240.302536 439.853790,238.913361 
	C440.221436,238.517029 440.589081,238.120712 441.377777,237.401001 
	C442.186737,236.376190 442.574646,235.674789 442.962555,234.973404 
	C442.962555,234.973404 443.000000,235.000000 443.305725,234.949585 
	C443.988464,234.216904 444.365479,233.534653 444.742493,232.852417 
	C444.742493,232.852417 444.834198,232.842056 445.155029,232.739761 
	C446.286377,231.408386 447.096863,230.179321 447.907349,228.950226 
	C448.555237,228.195114 449.203156,227.439987 450.315735,226.366943 
	C451.811707,224.671356 452.843048,223.293716 453.874359,221.916061 
	C453.874359,221.916061 453.962433,221.972153 454.263702,221.859894 
	C455.700653,220.159424 456.836365,218.571213 457.972076,216.983002 
	C458.485199,216.400864 458.998291,215.818710 460.007996,214.942673 
	C461.267120,213.398209 462.029633,212.147644 462.792145,210.897095 
	C463.042542,210.658875 463.292908,210.420670 464.021973,209.929596 
	C464.992188,208.780045 465.483765,207.883347 465.975311,206.986649 
	C466.939301,205.919586 467.903259,204.852524 469.353577,203.447845 
	C470.254242,202.425140 470.668579,201.740036 471.082886,201.054947 
	C471.715820,200.297531 472.348755,199.540115 473.401184,198.413788 
	C474.511230,197.007965 475.201782,195.971054 475.892334,194.934158 
	C476.491730,194.145905 477.091095,193.357651 478.234863,192.366058 
	C478.937378,193.381912 479.567322,194.782669 479.179077,195.791626 
	C476.033752,203.965256 472.638641,212.042297 469.438385,220.195389 
	C466.974091,226.473465 464.681610,232.818985 462.312714,239.134521 
	C462.114929,239.750763 461.917175,240.367004 461.380249,241.468948 
	C460.405853,243.659286 459.770630,245.363922 459.135406,247.068573 
	C458.940125,247.677475 458.744843,248.286377 458.226746,249.399017 
	C455.113586,256.231598 452.323273,262.560486 449.046448,269.992798 
	C452.586090,269.992798 454.374939,269.990875 456.163818,269.993134 
	C464.937439,270.004242 473.711060,270.031891 482.484619,270.017090 
	C484.608398,270.013489 486.639648,269.982208 486.137451,273.063599 
	C485.484131,273.810303 484.830811,274.557037 483.697632,275.639771 
	C482.656799,276.859131 482.095856,277.742523 481.534882,278.625885 
	C481.313263,278.826019 481.121460,279.051514 480.530579,279.582153 
	C479.417786,280.917603 478.733948,281.973236 478.050079,283.028870 
	C477.687958,283.417389 477.325836,283.805939 476.536682,284.527191 
	C475.676270,285.507111 475.242920,286.154297 474.809601,286.801514 
	C474.809601,286.801514 474.996796,286.958405 474.584290,286.976257 
	C473.500763,288.027435 472.829742,289.060760 472.158722,290.094086 
	C471.151642,291.154846 470.144562,292.215607 468.704803,293.641785 
	C467.861725,294.680115 467.451324,295.352997 467.040924,296.025909 
	C466.777191,296.231964 466.550568,296.472931 465.919556,297.027527 
	C464.667786,298.546722 463.857513,299.787201 463.047241,301.027710 
	C462.094666,302.115997 461.142059,303.204315 459.721008,304.643005 
	C458.858734,305.675446 458.464935,306.357452 458.071167,307.039429 
z"/>
<path fill="#6AABFA" opacity="1.000000" stroke="none" 
	d="
M434.563293,217.958313 
	C432.153290,217.637848 430.082184,216.940994 428.002441,216.914047 
	C418.216644,216.787216 408.427521,216.762909 398.641632,216.877701 
	C394.988922,216.920547 393.647491,215.680038 395.091888,212.144989 
	C397.024231,207.415817 398.979584,202.696060 401.239685,197.840042 
	C399.923889,203.023697 398.293457,208.339584 396.241669,215.029343 
	C408.393311,215.029343 419.970917,215.006210 431.548401,215.043365 
	C435.044556,215.054581 435.044312,215.131180 434.563293,217.958313 
z"/>
<path fill="#4A94F9" opacity="1.000000" stroke="none" 
	d="
M486.475830,272.946472 
	C486.639648,269.982208 484.608398,270.013489 482.484619,270.017090 
	C473.711060,270.031891 464.937439,270.004242 456.163818,269.993134 
	C454.374939,269.990875 452.586090,269.992798 449.046448,269.992798 
	C452.323273,262.560486 455.113586,256.231598 458.187927,249.718079 
	C456.791534,254.323273 455.113831,259.114075 453.428650,263.902252 
	C453.054779,264.964569 452.654510,266.017639 451.892242,268.094147 
	C455.715057,268.094147 458.938202,268.095978 462.161346,268.093811 
	C469.816833,268.088684 477.472900,268.032959 485.127197,268.126312 
	C486.316254,268.140808 487.497040,268.832977 488.681671,269.211792 
	C488.059174,270.417633 487.436676,271.623474 486.475830,272.946472 
z"/>
<path fill="#4A94F9" opacity="1.000000" stroke="none" 
	d="
M462.639587,239.048004 
	C464.681610,232.818985 466.974091,226.473465 469.438385,220.195389 
	C472.638641,212.042297 476.033752,203.965256 479.179077,195.791626 
	C479.567322,194.782669 478.937378,193.381912 478.421356,192.129181 
	C479.432648,190.059067 480.801849,188.022491 482.171051,185.985916 
	C482.671143,186.199097 483.171234,186.412277 483.671356,186.625458 
	C483.560974,187.765701 483.706665,189.007217 483.301758,190.030960 
	C477.337952,205.109238 471.318695,220.165680 465.250671,235.202362 
	C464.709167,236.544128 463.738068,237.712555 462.639587,239.048004 
z"/>
<path fill="#4A94F9" opacity="1.000000" stroke="none" 
	d="
M412.221649,301.930664 
	C412.588440,301.382690 413.207764,300.990540 413.819183,301.002533 
	C429.429169,301.309174 428.218323,299.008301 422.231628,313.423798 
	C420.201660,318.311707 418.039062,323.144531 415.641357,328.180054 
	C417.400024,322.619720 419.444244,316.878143 421.513580,311.145630 
	C422.392853,308.709930 423.324677,306.293182 424.422058,303.361633 
	C419.920654,302.952301 416.195587,302.613556 412.221649,301.930664 
z"/>
<path fill="#4A94F9" opacity="1.000000" stroke="none" 
	d="
M411.381531,336.989716 
	C408.199768,345.990967 404.756256,355.128143 401.174164,364.210663 
	C399.593079,368.219513 397.730682,372.117371 395.692322,376.230865 
	C397.563690,370.399445 399.579773,364.338959 401.954559,358.422455 
	C404.832489,351.252563 408.013550,344.204315 411.381531,336.989716 
z"/>
<path fill="#6AABFA" opacity="1.000000" stroke="none" 
	d="
M412.799591,169.128937 
	C415.007904,162.044785 417.440186,154.772339 420.025146,147.554550 
	C421.181641,144.325409 422.644409,141.205963 424.273438,137.881653 
	C424.000366,140.064270 423.663025,142.495300 422.800415,144.722931 
	C419.657196,152.839691 416.338409,160.888489 412.799591,169.128937 
z"/>
<path fill="#6AABFA" opacity="1.000000" stroke="none" 
	d="
M402.783203,195.107178 
	C404.615051,189.493042 406.725677,183.701736 409.151733,177.788788 
	C407.332092,183.421432 405.197052,189.175720 402.783203,195.107178 
z"/>
<path fill="#4A94F9" opacity="1.000000" stroke="none" 
	d="
M394.472900,378.006287 
	C395.056030,378.923309 395.297302,379.934418 395.854340,381.190979 
	C395.248230,382.940521 394.326324,384.444672 393.404449,385.948822 
	C392.796265,385.666077 392.188080,385.383301 391.579926,385.100555 
	C392.430267,382.767151 393.280640,380.433777 394.472900,378.006287 
z"/>
<path fill="#5BA0F7" opacity="1.000000" stroke="none" 
	d="
M426.825745,131.976685 
	C425.930084,131.982254 425.361725,131.948624 424.365662,131.905212 
	C424.989075,130.196686 426.040131,128.497925 427.091187,126.799179 
	C427.738708,127.153214 428.386230,127.507248 429.033752,127.861290 
	C428.406860,129.220032 427.779938,130.578766 426.825745,131.976685 
z"/>
<path fill="#4A94F9" opacity="1.000000" stroke="none" 
	d="
M390.567993,297.994843 
	C391.445526,299.002533 391.986664,300.054260 392.777222,301.326416 
	C391.644653,301.717072 390.262665,301.887238 388.880646,302.057404 
	C389.330963,300.717896 389.781281,299.378357 390.567993,297.994843 
z"/>
<path fill="#4A94F9" opacity="1.000000" stroke="none" 
	d="
M457.625671,217.006729 
	C456.836365,218.571213 455.700653,220.159424 454.237122,221.814972 
	C455.032593,220.264999 456.155914,218.647736 457.625671,217.006729 
z"/>
<path fill="#4A94F9" opacity="1.000000" stroke="none" 
	d="
M419.441162,262.923523 
	C418.673523,264.449280 417.576447,266.025269 416.150574,267.632202 
	C416.918396,266.100037 418.015045,264.536896 419.441162,262.923523 
z"/>
<path fill="#4A94F9" opacity="1.000000" stroke="none" 
	d="
M439.515961,238.955994 
	C438.842316,240.302536 437.830811,241.691727 436.489624,243.141693 
	C437.165985,241.801193 438.172058,240.399902 439.515961,238.955994 
z"/>
<path fill="#4A94F9" opacity="1.000000" stroke="none" 
	d="
M453.537354,221.958481 
	C452.843048,223.293716 451.811707,224.671356 450.446960,226.098236 
	C451.142487,224.765289 452.171417,223.383087 453.537354,221.958481 
z"/>
<path fill="#4A94F9" opacity="1.000000" stroke="none" 
	d="
M459.479065,246.994705 
	C459.770630,245.363922 460.405853,243.659286 461.339966,241.791107 
	C461.033478,243.391983 460.428131,245.156403 459.479065,246.994705 
z"/>
<path fill="#4A94F9" opacity="1.000000" stroke="none" 
	d="
M414.500000,329.997620 
	C414.194458,331.631714 413.548706,333.341675 412.583069,335.176758 
	C412.895416,333.559082 413.527618,331.816284 414.500000,329.997620 
z"/>
<path fill="#4A94F9" opacity="1.000000" stroke="none" 
	d="
M402.574219,282.990112 
	C402.104675,284.190247 401.297791,285.429565 400.166077,286.720856 
	C400.639801,285.524994 401.438354,284.277161 402.574219,282.990112 
z"/>
<path fill="#4A94F9" opacity="1.000000" stroke="none" 
	d="
M413.616455,270.004547 
	C413.144104,271.210815 412.332001,272.446777 411.194244,273.725769 
	C411.671295,272.523956 412.473999,271.279083 413.616455,270.004547 
z"/>
<path fill="#4A94F9" opacity="1.000000" stroke="none" 
	d="
M462.462097,210.946594 
	C462.029633,212.147644 461.267120,213.398209 460.182129,214.703400 
	C460.617096,213.504044 461.374573,212.250061 462.462097,210.946594 
z"/>
<path fill="#4A94F9" opacity="1.000000" stroke="none" 
	d="
M412.459503,362.038574 
	C412.929474,360.849792 413.731171,359.620972 414.858093,358.371002 
	C414.385986,359.566071 413.588593,360.782318 412.459503,362.038574 
z"/>
<path fill="#6AABFA" opacity="1.000000" stroke="none" 
	d="
M368.535889,298.089661 
	C368.986572,296.879761 369.760834,295.595917 370.871399,294.268951 
	C370.424988,295.489105 369.642212,296.752411 368.535889,298.089661 
z"/>
<path fill="#4A94F9" opacity="1.000000" stroke="none" 
	d="
M424.600128,257.001282 
	C424.115417,258.177521 423.296417,259.391510 422.153564,260.643005 
	C422.641724,259.466675 423.453796,258.252808 424.600128,257.001282 
z"/>
<path fill="#4A94F9" opacity="1.000000" stroke="none" 
	d="
M463.386780,300.987976 
	C463.857513,299.787201 464.667786,298.546722 465.801147,297.246338 
	C465.324921,298.440369 464.525574,299.694275 463.386780,300.987976 
z"/>
<path fill="#4A94F9" opacity="1.000000" stroke="none" 
	d="
M447.570404,228.989243 
	C447.096863,230.179321 446.286377,231.408386 445.152161,232.693726 
	C445.630096,231.509399 446.431763,230.268814 447.570404,228.989243 
z"/>
<path fill="#4A94F9" opacity="1.000000" stroke="none" 
	d="
M433.545715,245.967072 
	C433.092163,247.176819 432.301758,248.422501 431.186249,249.712616 
	C431.643677,248.505692 432.426239,247.254333 433.545715,245.967072 
z"/>
<path fill="#4A94F9" opacity="1.000000" stroke="none" 
	d="
M393.608490,294.012207 
	C393.292419,295.025543 392.624603,296.076630 391.658600,297.252350 
	C391.992523,296.267975 392.624634,295.158936 393.608490,294.012207 
z"/>
<path fill="#6AABFA" opacity="1.000000" stroke="none" 
	d="
M359.399231,309.009705 
	C359.763550,308.029083 360.460236,306.998138 361.478394,305.900757 
	C361.110443,306.876007 360.421021,307.917694 359.399231,309.009705 
z"/>
<path fill="#4A94F9" opacity="1.000000" stroke="none" 
	d="
M475.552246,194.977570 
	C475.201782,195.971054 474.511230,197.007965 473.503357,198.135147 
	C473.861420,197.157272 474.536804,196.089111 475.552246,194.977570 
z"/>
<path fill="#6AABFA" opacity="1.000000" stroke="none" 
	d="
M373.381714,292.002808 
	C373.743317,291.019348 374.441345,289.996643 375.456360,288.895447 
	C375.088257,289.865814 374.403198,290.914673 373.381714,292.002808 
z"/>
<path fill="#4A94F9" opacity="1.000000" stroke="none" 
	d="
M452.453308,314.023315 
	C452.800446,313.045624 453.484009,312.020325 454.477905,310.904785 
	C454.122040,311.868256 453.455872,312.921967 452.453308,314.023315 
z"/>
<path fill="#4A94F9" opacity="1.000000" stroke="none" 
	d="
M443.436279,325.006836 
	C443.770111,324.010437 444.446777,322.963654 445.430481,321.805969 
	C445.084686,322.782196 444.431885,323.869324 443.436279,325.006836 
z"/>
<path fill="#4A94F9" opacity="1.000000" stroke="none" 
	d="
M472.492615,290.042725 
	C472.829742,289.060760 473.500763,288.027435 474.484253,286.906616 
	C474.140015,287.876526 473.483276,288.933929 472.492615,290.042725 
z"/>
<path fill="#4A94F9" opacity="1.000000" stroke="none" 
	d="
M399.431427,286.918304 
	C399.091705,287.892273 398.426270,288.928314 397.441559,290.039246 
	C397.783417,289.069519 398.444580,288.024963 399.431427,286.918304 
z"/>
<path fill="#6AABFA" opacity="1.000000" stroke="none" 
	d="
M379.402740,285.003601 
	C379.741730,284.027222 380.413849,282.992310 381.397217,281.866699 
	C381.050964,282.832367 380.393402,283.888733 379.402740,285.003601 
z"/>
<path fill="#4A94F9" opacity="1.000000" stroke="none" 
	d="
M478.397278,282.987579 
	C478.733948,281.973236 479.417786,280.917603 480.418671,279.774475 
	C480.071991,280.773407 479.408234,281.859833 478.397278,282.987579 
z"/>
<path fill="#4A94F9" opacity="1.000000" stroke="none" 
	d="
M423.440735,349.012238 
	C423.809570,348.028564 424.516327,347.000824 425.542603,345.898651 
	C425.167633,346.872192 424.473175,347.920197 423.440735,349.012238 
z"/>
<path fill="#6AABFA" opacity="1.000000" stroke="none" 
	d="
M410.097778,175.876938 
	C410.085907,175.054825 410.343201,174.115051 410.885498,173.091690 
	C410.902649,173.925171 410.634796,174.842224 410.097778,175.876938 
z"/>
<path fill="#4A94F9" opacity="1.000000" stroke="none" 
	d="
M409.531433,274.979248 
	C409.181366,275.972015 408.495087,277.012421 407.488831,278.128601 
	C407.844299,277.145264 408.519775,276.086090 409.531433,274.979248 
z"/>
<path fill="#4A94F9" opacity="1.000000" stroke="none" 
	d="
M408.406464,367.010712 
	C408.775970,366.021271 409.487701,364.994690 410.516296,363.881042 
	C410.138336,364.853851 409.443512,365.913696 408.406464,367.010712 
z"/>
<path fill="#6AABFA" opacity="1.000000" stroke="none" 
	d="
M397.425354,263.019287 
	C397.762299,262.037628 398.428833,260.992584 399.411072,259.869385 
	C399.069519,260.846100 398.412262,261.901001 397.425354,263.019287 
z"/>
<path fill="#4A94F9" opacity="1.000000" stroke="none" 
	d="
M429.585327,251.003784 
	C429.235229,252.003052 428.544922,253.046585 427.535095,254.168167 
	C427.892059,253.180176 428.568573,252.114120 429.585327,251.003784 
z"/>
<path fill="#6AABFA" opacity="1.000000" stroke="none" 
	d="
M401.456787,258.051147 
	C401.800232,257.064240 402.475372,256.022217 403.468811,254.904556 
	C403.120911,255.884598 402.454712,256.940308 401.456787,258.051147 
z"/>
<path fill="#4A94F9" opacity="1.000000" stroke="none" 
	d="
M406.127869,369.777527 
	C406.334106,368.904175 406.891022,368.060242 407.749878,367.137939 
	C407.527374,367.975342 407.002991,368.891144 406.127869,369.777527 
z"/>
<path fill="#6AABFA" opacity="1.000000" stroke="none" 
	d="
M407.275757,250.918900 
	C407.483276,250.062775 408.020630,249.181564 408.879517,248.258698 
	C408.669220,249.109283 408.137421,250.001541 407.275757,250.918900 
z"/>
<path fill="#4A94F9" opacity="1.000000" stroke="none" 
	d="
M465.642883,207.013321 
	C465.483765,207.883347 464.992188,208.780045 464.188049,209.730408 
	C464.353790,208.869370 464.832123,207.954681 465.642883,207.013321 
z"/>
<path fill="#4A94F9" opacity="1.000000" stroke="none" 
	d="
M455.146423,310.810913 
	C455.364777,309.953796 455.926300,309.114777 456.798035,308.228485 
	C456.568726,309.063812 456.029175,309.946411 455.146423,310.810913 
z"/>
<path fill="#6AABFA" opacity="1.000000" stroke="none" 
	d="
M389.182739,272.817871 
	C389.393280,271.963745 389.942413,271.101105 390.804291,270.175781 
	C390.585144,271.011810 390.053253,271.910583 389.182739,272.817871 
z"/>
<path fill="#4A94F9" opacity="1.000000" stroke="none" 
	d="
M481.887085,278.612915 
	C482.095856,277.742523 482.656799,276.859131 483.530396,275.889954 
	C483.308441,276.736084 482.773895,277.668030 481.887085,278.612915 
z"/>
<path fill="#4A94F9" opacity="1.000000" stroke="none" 
	d="
M404.249939,371.916626 
	C404.329254,371.275574 404.746216,370.615692 405.454102,369.869720 
	C405.359192,370.488342 404.973419,371.193054 404.249939,371.916626 
z"/>
<path fill="#4A94F9" opacity="1.000000" stroke="none" 
	d="
M429.343567,341.962616 
	C429.415161,341.324615 429.818115,340.641754 430.527649,339.876221 
	C430.447845,340.501587 430.061371,341.209686 429.343567,341.962616 
z"/>
<path fill="#4A94F9" opacity="1.000000" stroke="none" 
	d="
M447.411560,319.996399 
	C447.491760,319.375458 447.891632,318.701508 448.599731,317.953613 
	C448.515717,318.567596 448.123474,319.255493 447.411560,319.996399 
z"/>
<path fill="#4A94F9" opacity="1.000000" stroke="none" 
	d="
M439.329285,329.971008 
	C439.412811,329.315338 439.828979,328.632660 440.555237,327.887573 
	C440.464233,328.531433 440.063110,329.237732 439.329285,329.971008 
z"/>
<path fill="#4A94F9" opacity="1.000000" stroke="none" 
	d="
M435.177917,334.857666 
	C435.248810,334.203247 435.674896,333.537506 436.385986,332.754791 
	C436.291718,333.373962 435.912445,334.110138 435.177917,334.857666 
z"/>
<path fill="#4A94F9" opacity="1.000000" stroke="none" 
	d="
M432.539276,338.066223 
	C432.610138,337.440277 432.984100,336.750824 433.674744,336.023438 
	C433.608398,336.657898 433.225403,337.330292 432.539276,338.066223 
z"/>
<path fill="#4A94F9" opacity="1.000000" stroke="none" 
	d="
M417.393311,356.007996 
	C417.495422,355.375824 417.916016,354.704773 418.653076,353.993164 
	C418.550293,354.624786 418.131012,355.296967 417.393311,356.007996 
z"/>
<path fill="#5BA0F7" opacity="1.000000" stroke="none" 
	d="
M422.782776,133.123550 
	C422.711365,133.767487 422.294403,134.422729 421.592285,135.180923 
	C421.683868,134.567535 422.060577,133.851196 422.782776,133.123550 
z"/>
<path fill="#6AABFA" opacity="1.000000" stroke="none" 
	d="
M429.213440,224.852722 
	C429.282654,224.219391 429.688660,223.574020 430.381714,222.841980 
	C430.295929,223.450424 429.923096,224.145554 429.213440,224.852722 
z"/>
<path fill="#4A94F9" opacity="1.000000" stroke="none" 
	d="
M442.632263,235.015549 
	C442.574646,235.674789 442.186737,236.376190 441.485931,237.147400 
	C441.549347,236.497375 441.925690,235.777527 442.632263,235.015549 
z"/>
<path fill="#4A94F9" opacity="1.000000" stroke="none" 
	d="
M444.441833,232.914886 
	C444.365479,233.534653 443.988464,234.216904 443.292114,234.930969 
	C443.362244,234.300980 443.751709,233.639191 444.441833,232.914886 
z"/>
<path fill="#6AABFA" opacity="1.000000" stroke="none" 
	d="
M411.355103,245.997803 
	C411.444763,245.355377 411.856293,244.679993 412.578674,243.952896 
	C412.485321,244.589081 412.081146,245.276962 411.355103,245.997803 
z"/>
<path fill="#6AABFA" opacity="1.000000" stroke="none" 
	d="
M421.413391,234.023605 
	C421.496185,233.407394 421.891235,232.727936 422.599701,231.984650 
	C422.517303,232.600693 422.121460,233.280533 421.413391,234.023605 
z"/>
<path fill="#6AABFA" opacity="1.000000" stroke="none" 
	d="
M392.335876,268.964539 
	C392.420868,268.345245 392.825531,267.674805 393.537262,266.935455 
	C393.448059,267.548828 393.051788,268.231140 392.335876,268.964539 
z"/>
<path fill="#6AABFA" opacity="1.000000" stroke="none" 
	d="
M383.446014,280.043762 
	C383.520660,279.427612 383.905762,278.743256 384.604736,277.992432 
	C384.531250,278.609161 384.143860,279.292328 383.446014,280.043762 
z"/>
<path fill="#4A94F9" opacity="1.000000" stroke="none" 
	d="
M475.165833,286.812561 
	C475.242920,286.154297 475.676270,285.507111 476.392761,284.750671 
	C476.291321,285.368835 475.906677,286.096222 475.165833,286.812561 
z"/>
<path fill="#4A94F9" opacity="1.000000" stroke="none" 
	d="
M467.366699,295.979004 
	C467.451324,295.352997 467.861725,294.680115 468.579346,293.930908 
	C468.488525,294.547150 468.090485,295.239624 467.366699,295.979004 
z"/>
<path fill="#6AABFA" opacity="1.000000" stroke="none" 
	d="
M365.364899,301.987793 
	C365.425018,301.352325 365.805542,300.663971 366.495544,299.906525 
	C366.431793,300.536621 366.058533,301.235748 365.364899,301.987793 
z"/>
<path fill="#4A94F9" opacity="1.000000" stroke="none" 
	d="
M470.741516,201.083405 
	C470.668579,201.740036 470.254242,202.425140 469.536255,203.195541 
	C469.621735,202.557861 470.010925,201.834869 470.741516,201.083405 
z"/>
<path fill="#4A94F9" opacity="1.000000" stroke="none" 
	d="
M458.397095,306.990479 
	C458.464935,306.357452 458.858734,305.675446 459.555969,304.907776 
	C459.480621,305.528595 459.101837,306.235077 458.397095,306.990479 
z"/>
<path fill="#6AABFA" opacity="1.000000" stroke="none" 
	d="
M353.436798,316.052429 
	C353.526154,315.415436 353.926941,314.725525 354.652100,314.005859 
	C354.567078,314.650543 354.157654,315.325012 353.436798,316.052429 
z"/>
<path fill="#4A94F9" opacity="1.000000" stroke="none" 
	d="
M414.997009,268.272247 
	C415.053223,268.733276 414.805603,269.261414 414.264893,269.873993 
	C414.212250,269.418732 414.452759,268.879059 414.997009,268.272247 
z"/>
<path fill="#6AABFA" opacity="1.000000" stroke="none" 
	d="
M351.690552,318.180908 
	C351.329285,317.907410 351.411713,317.618378 351.985474,317.367920 
	C352.242798,317.646454 352.128601,317.899384 351.690552,318.180908 
z"/>
<path fill="#4A94F9" opacity="1.000000" stroke="none" 
	d="
M396.852905,290.177063 
	C396.970825,290.422424 396.823395,290.737396 396.414124,291.126526 
	C396.297394,290.882690 396.442505,290.564697 396.852905,290.177063 
z"/>
<path fill="#4A94F9" opacity="1.000000" stroke="none" 
	d="
M398.418152,378.996246 
	C398.322998,378.784058 398.440735,378.491302 398.811188,378.171143 
	C399.043549,378.470581 398.899231,378.727875 398.418152,378.996246 
z"/>
<path fill="#D3F0F3" opacity="1.000000" stroke="none" 
	d="
M908.101929,241.772217 
	C920.457947,244.347504 925.963867,249.892517 926.805786,260.712738 
	C911.601868,260.712738 896.439209,260.712738 881.270447,260.712738 
	C879.730774,249.779266 891.720398,241.146393 908.101929,241.772217 
z"/>
<path fill="#D1EEF1" opacity="1.000000" stroke="none" 
	d="
M1324.924927,241.848969 
	C1336.474487,241.891495 1346.213501,248.390060 1346.646973,260.684296 
	C1331.663330,260.684296 1316.692261,260.684296 1301.724487,260.684296 
	C1301.463379,250.268845 1311.258545,242.274933 1324.924927,241.848969 
z"/>
<path fill="#D4F0F3" opacity="1.000000" stroke="none" 
	d="
M1133.453369,297.656281 
	C1126.158081,300.670197 1119.087280,301.944122 1111.829712,298.942505 
	C1108.091675,297.396545 1105.381348,294.933716 1105.051025,290.596130 
	C1104.701172,286.004547 1106.316040,282.189392 1110.589966,280.387482 
	C1113.862183,279.007935 1117.503418,278.109253 1121.043213,277.848877 
	C1126.676025,277.434601 1132.371338,277.937225 1138.020386,277.654236 
	C1141.966064,277.456573 1142.425415,279.068909 1142.560425,282.629517 
	C1142.828979,289.718353 1139.720459,294.295593 1133.453369,297.656281 
z"/>
</svg>