<svg version="1.1" id="Layer_1" xmlns="http://www.w3.org/2000/svg" xmlns:xlink="http://www.w3.org/1999/xlink" x="0px" y="0px"
	 width="100%" viewBox="0 0 512 184" enable-background="new 0 0 512 184" xml:space="preserve">
<path fill="#111929" opacity="1.000000" stroke="none" 
	d="
M356.000000,185.000000 
	C237.333359,185.000000 119.166710,185.000000 1.000048,185.000000 
	C1.000032,123.666702 1.000032,62.333397 1.000016,1.000072 
	C171.666611,1.000048 342.333221,1.000048 512.999878,1.000024 
	C512.999878,62.333263 512.999878,123.666527 512.999939,184.999893 
	C460.833344,185.000000 408.666656,185.000000 356.000000,185.000000 
M380.873993,116.658501 
	C380.873993,116.658501 380.801208,116.641434 381.643829,116.835289 
	C383.985474,117.451057 387.465485,117.309814 388.467377,118.816490 
	C392.355255,124.663101 398.225250,124.895706 402.462585,125.667381 
	C405.172699,123.609711 407.092255,121.076813 408.437683,121.351913 
	C411.347778,121.946922 416.980682,121.039124 416.424805,125.157043 
	C415.779785,129.935104 418.340729,132.968704 419.464691,136.734375 
	C420.998505,141.873093 423.157715,142.320663 426.259857,138.004456 
	C427.375000,136.452866 427.781372,133.568954 427.146606,131.776245 
	C426.203827,129.113571 424.047607,126.880592 422.074646,123.973846 
	C424.766571,119.253319 429.530823,118.266792 434.854889,117.901184 
	C437.151489,117.743462 440.566864,117.119911 441.345215,115.610344 
	C442.461761,113.444862 442.758942,109.363510 441.419189,107.704407 
	C437.367981,102.687500 437.393188,97.951675 439.803223,92.455887 
	C440.478271,90.916481 439.899384,88.844559 439.972351,87.019974 
	C440.108429,83.617424 440.300659,80.217125 440.469482,76.815887 
	C441.020966,76.557327 441.572449,76.298775 442.123932,76.040222 
	C439.476318,74.546799 436.803467,73.096069 434.186951,71.550034 
	C430.176453,69.180321 428.729431,70.672302 428.144501,74.969612 
	C426.429962,74.914291 424.715393,74.858971 423.000732,73.966965 
	C422.995239,72.801971 423.098450,71.624237 422.963745,70.474380 
	C422.572998,67.139458 419.546234,65.962044 416.470306,66.924004 
	C412.844238,68.058029 408.129120,69.903008 405.294250,68.530807 
	C398.698181,65.338051 393.701202,66.175728 388.696564,70.911308 
	C387.763672,71.794037 386.598694,72.630486 385.392334,72.989777 
	C380.865540,74.338013 375.942474,77.098679 371.806183,76.243362 
	C367.672363,75.388550 364.690704,76.124268 361.056366,77.073830 
	C359.255432,77.544357 355.412872,76.310585 355.049103,75.087753 
	C353.658630,70.413788 349.237152,72.039017 346.817413,70.182045 
	C342.704437,67.025635 341.011597,69.903275 337.848267,71.788818 
	C331.529266,75.555351 324.282623,74.402550 317.623108,72.150612 
	C312.683502,70.480270 308.153595,68.078972 305.222565,72.947075 
	C301.567841,72.947075 298.927795,72.932671 296.287964,72.950607 
	C292.742432,72.974693 288.840424,74.002243 285.723145,72.865959 
	C278.400330,70.196686 270.969147,69.448166 263.600067,70.927521 
	C257.743958,72.103157 251.017151,71.020737 246.644684,66.551506 
	C245.672012,65.557312 244.183701,64.768288 242.816574,64.516815 
	C239.086609,63.830746 235.257294,62.882172 231.534042,63.113037 
	C220.488297,63.797932 209.486359,65.169205 198.443924,65.935310 
	C192.089005,66.376221 191.428802,66.904152 192.168533,73.001297 
	C190.782745,73.002106 189.396957,73.002914 187.483185,72.547722 
	C186.349167,69.485664 184.769318,69.710670 182.168060,71.231560 
	C175.589066,75.078171 174.184509,81.598236 173.253387,88.133751 
	C172.085052,96.334389 172.241959,104.699608 179.404526,110.465813 
	C183.021057,113.377289 182.097366,115.610138 179.476501,117.543396 
	C176.701050,119.590675 176.222748,121.966667 177.804810,124.345863 
	C179.085464,126.271812 181.274536,128.290390 183.409607,128.796860 
	C187.101761,129.672714 191.832336,128.130951 194.754044,129.887512 
	C200.880356,133.570724 207.006821,131.254944 213.086624,131.809280 
	C215.234207,132.005081 217.354797,132.522781 219.503189,132.675217 
	C221.131882,132.790802 224.215607,132.612198 224.220566,132.476105 
	C224.395401,127.666245 230.436966,124.480843 228.475998,118.843262 
	C229.328430,118.727203 230.180847,118.611153 231.941544,118.370331 
	C233.219238,119.579498 235.798035,121.212692 235.564468,121.929352 
	C233.993073,126.751122 235.681625,129.100143 240.312531,130.391891 
	C241.718063,130.783966 242.763657,132.466415 243.506210,133.135956 
	C246.494614,132.714981 249.112289,132.617691 251.559631,131.921600 
	C253.802002,131.283798 255.860489,129.999451 258.866089,129.000000 
	C260.766327,128.718842 262.666565,128.437683 264.566803,128.156525 
	C264.359070,126.939262 264.154327,125.721474 263.942780,124.504875 
	C263.701782,123.118858 263.454712,121.733894 263.210297,120.348473 
	C265.019592,120.181007 266.876526,119.673698 268.627991,119.919022 
	C271.954956,120.384995 275.196167,121.463509 278.523102,121.929619 
	C280.436676,122.197708 282.448639,121.763817 284.186401,121.659698 
	C282.360321,123.759880 280.675598,125.697502 278.990845,127.635132 
	C279.375275,128.034683 279.759705,128.434235 280.144135,128.833801 
	C285.067200,123.069756 291.309387,120.952774 298.719482,120.769081 
	C301.509827,120.699928 304.241547,118.265312 307.780701,117.042259 
	C311.155823,117.265976 314.530945,117.489693 317.956787,118.572311 
	C318.411133,121.890640 317.479950,124.044838 313.674255,124.365250 
	C312.792572,124.439484 312.012573,125.721130 311.185760,126.447182 
	C312.030090,127.315842 312.726471,128.471008 313.747162,128.998108 
	C316.531708,130.436050 320.039978,130.988968 322.190094,133.024338 
	C325.911987,136.547562 327.679138,133.672379 329.992218,131.681458 
	C332.420746,129.591217 336.947968,134.361832 338.396210,129.152649 
	C339.076080,126.707130 339.573608,124.210907 340.215698,121.473732 
	C344.775421,121.240501 349.910614,120.977837 355.045807,120.715172 
	C355.524200,119.768242 356.002594,118.821312 356.481018,117.874382 
	C358.102844,120.186104 359.598969,122.604713 361.420471,124.746635 
	C361.992493,125.419312 363.661865,125.830093 364.420837,125.478874 
	C365.142792,125.144783 365.415741,123.685516 365.736511,122.673538 
	C366.300781,120.893341 366.751007,119.077003 368.087280,117.410927 
	C371.509338,117.543648 374.931396,117.676369 379.112976,117.855331 
	C379.676849,117.451851 380.240723,117.048370 380.873993,116.658501 
M55.180763,87.048660 
	C54.464996,87.774887 53.156342,88.479599 53.129089,89.230797 
	C52.943714,94.340454 52.893272,99.466896 53.157898,104.569321 
	C53.202278,105.425117 54.988869,106.190559 56.335583,107.672760 
	C58.101074,112.828972 59.191029,118.349663 61.743866,123.081062 
	C76.165428,149.809845 107.108444,160.862503 134.521286,146.037109 
	C157.244965,133.747665 168.296387,110.213852 161.218216,83.870842 
	C155.387436,62.170319 140.548203,48.257721 118.338234,44.402290 
	C96.596954,40.628223 75.702126,49.958702 63.833488,69.391998 
	C60.514118,74.827026 58.577522,81.106560 55.180763,87.048660 
M502.114990,168.801620 
	C500.105011,166.309601 498.095032,163.817566 496.085052,161.325531 
	C496.597260,161.963531 497.109467,162.601547 497.621674,163.239548 
	C495.209595,165.253693 492.797546,167.267838 490.385468,169.281982 
	C490.667877,168.408768 490.950317,167.535568 491.232727,166.662354 
	C493.303375,168.862244 495.373993,171.062119 497.444641,173.262009 
	C496.697083,173.387589 495.949554,173.513184 495.201996,173.638763 
	C497.289734,172.105637 499.377472,170.572510 502.114990,168.801620 
z"/>
<path fill="#131A29" opacity="1.000000" stroke="none" 
	d="
M258.000000,129.000000 
	C255.860489,129.999451 253.802002,131.283798 251.559631,131.921600 
	C249.112289,132.617691 246.494614,132.714981 243.506210,133.135956 
	C242.763657,132.466415 241.718063,130.783966 240.312531,130.391891 
	C235.681625,129.100143 233.993073,126.751122 235.564468,121.929352 
	C235.798035,121.212692 233.219238,119.579498 231.778549,118.213409 
	C231.858200,118.066910 232.100830,118.077347 232.648651,117.760635 
	C233.299316,116.360435 233.939087,115.289070 233.945312,114.214043 
	C234.018417,101.587685 234.036453,88.960434 233.928970,76.334618 
	C233.919693,75.245857 232.913986,74.165588 231.986160,72.950943 
	C229.139114,72.898773 226.677048,72.977043 223.872299,73.299927 
	C223.406418,87.626251 223.276291,101.707916 223.195419,115.789879 
	C223.193130,116.190056 223.715164,116.593246 224.178162,117.284027 
	C225.575821,118.059990 226.788055,118.546967 228.000275,119.033951 
	C230.436966,124.480843 224.395401,127.666245 224.220566,132.476105 
	C224.215607,132.612198 221.131882,132.790802 219.503189,132.675217 
	C217.354797,132.522781 215.234207,132.005081 213.086624,131.809280 
	C207.006821,131.254944 200.880356,133.570724 194.754044,129.887512 
	C191.832336,128.130951 187.101761,129.672714 183.409607,128.796860 
	C181.274536,128.290390 179.085464,126.271812 177.804810,124.345863 
	C176.222748,121.966667 176.701050,119.590675 179.476501,117.543396 
	C182.097366,115.610138 183.021057,113.377289 179.404526,110.465813 
	C172.241959,104.699608 172.085052,96.334389 173.253387,88.133751 
	C174.184509,81.598236 175.589066,75.078171 182.168060,71.231560 
	C184.769318,69.710670 186.349167,69.485664 187.742981,73.103310 
	C188.002640,74.095802 188.002487,74.532707 187.894012,75.099152 
	C187.785690,75.228691 187.475388,75.095406 187.102875,75.304726 
	C186.496414,76.115326 186.060547,76.715843 186.058258,77.318008 
	C186.010803,89.796272 185.970169,102.275101 186.080017,114.752472 
	C186.089478,115.825027 187.161331,116.888214 187.778397,117.887398 
	C187.817123,117.819046 187.961563,117.880905 188.239517,118.201797 
	C197.307251,118.675797 206.096786,118.855232 214.887238,118.930817 
	C215.573273,118.936714 216.265549,118.216476 217.065598,117.491745 
	C216.778915,114.744453 216.381577,112.339134 215.752289,109.674942 
	C214.021698,109.588760 212.523041,109.761459 210.601746,110.037567 
	C208.446396,110.074478 206.713669,110.007980 204.725372,109.672974 
	C202.981140,109.238029 201.492477,109.071587 200.003235,108.490860 
	C199.845917,105.812683 200.068115,103.957687 203.074966,103.778046 
	C203.586166,103.747513 203.994858,102.000717 204.878174,100.951782 
	C206.936783,100.849754 208.584946,100.689346 210.196091,100.866211 
	C214.133469,101.298424 215.598724,99.504692 215.167007,95.753181 
	C215.036850,94.622177 215.000534,93.480377 214.746399,92.018845 
	C213.381729,91.445107 212.191879,91.196037 210.920135,90.591232 
	C207.457947,88.311722 204.077667,86.387955 200.998047,84.635292 
	C200.998047,86.966942 200.998047,88.958527 200.580704,90.964172 
	C199.112030,89.967232 197.558624,89.129539 197.134811,87.901901 
	C196.589111,86.321159 196.948715,84.427887 197.292526,82.489304 
	C203.943787,82.309372 210.220901,82.309372 216.644348,82.309372 
	C216.644348,79.591064 216.644348,77.528786 216.644348,75.277176 
	C213.920532,75.142914 211.457077,75.021477 208.682297,74.628464 
	C203.247513,73.902664 198.124069,73.448441 193.000610,72.994225 
	C191.428802,66.904152 192.089005,66.376221 198.443924,65.935310 
	C209.486359,65.169205 220.488297,63.797932 231.534042,63.113037 
	C235.257294,62.882172 239.086609,63.830746 242.816574,64.516815 
	C244.183701,64.768288 245.672012,65.557312 246.644684,66.551506 
	C251.017151,71.020737 257.743958,72.103157 263.600067,70.927521 
	C270.969147,69.448166 278.400330,70.196686 285.723145,72.865959 
	C288.840424,74.002243 292.742432,72.974693 296.287964,72.950607 
	C298.927795,72.932671 301.567841,72.947075 305.222565,72.947075 
	C308.153595,68.078972 312.683502,70.480270 317.623108,72.150612 
	C324.282623,74.402550 331.529266,75.555351 337.848267,71.788818 
	C341.011597,69.903275 342.704437,67.025635 346.817413,70.182045 
	C349.237152,72.039017 353.658630,70.413788 355.049103,75.087753 
	C355.412872,76.310585 359.255432,77.544357 361.056366,77.073830 
	C364.690704,76.124268 367.672363,75.388550 371.806183,76.243362 
	C375.942474,77.098679 380.865540,74.338013 385.392334,72.989777 
	C386.598694,72.630486 387.763672,71.794037 388.696564,70.911308 
	C393.701202,66.175728 398.698181,65.338051 405.294250,68.530807 
	C408.129120,69.903008 412.844238,68.058029 416.470306,66.924004 
	C419.546234,65.962044 422.572998,67.139458 422.963745,70.474380 
	C423.098450,71.624237 422.995239,72.801971 422.715729,74.477234 
	C422.034363,75.013680 421.638000,75.039848 420.894989,75.304817 
	C420.647705,84.680397 420.747101,93.817169 420.855652,103.314392 
	C419.262970,107.734352 417.137848,110.591614 411.924561,110.345276 
	C407.244690,110.124146 404.014160,108.877037 403.254852,103.726234 
	C403.702698,93.961075 403.844849,84.484924 404.210144,74.812424 
	C404.203278,74.137497 403.973267,73.658920 403.743286,73.180344 
	C403.161743,73.810699 402.580231,74.441048 401.554993,75.046577 
	C398.739685,75.014664 396.368134,75.007568 393.742310,75.051682 
	C393.316345,75.082909 393.144592,75.062935 393.093872,74.759193 
	C393.130005,73.811142 393.045166,73.146873 392.960327,72.482590 
	C392.641357,73.324448 392.322388,74.166298 391.999878,75.476288 
	C391.996826,83.812851 391.902222,91.683441 392.081818,99.547775 
	C392.115814,101.036720 393.238251,102.500816 394.066711,104.284843 
	C396.636841,112.900612 401.830688,117.515541 409.398163,118.030899 
	C420.120239,118.761101 425.275391,115.177513 430.016663,103.742661 
	C430.584076,102.037621 430.817963,100.519791 431.419678,98.922272 
	C435.845398,94.655525 433.563416,89.359268 434.097565,84.580330 
	C434.180054,83.842308 432.120087,82.864815 431.033936,81.570114 
	C430.559235,79.127945 430.101471,77.113747 429.453796,75.136765 
	C429.263916,75.173965 429.000549,74.890343 429.000549,74.890343 
	C428.729431,70.672302 430.176453,69.180321 434.186951,71.550034 
	C436.803467,73.096069 439.476318,74.546799 442.123932,76.040222 
	C441.572449,76.298775 441.020966,76.557327 440.469482,76.815887 
	C440.300659,80.217125 440.108429,83.617424 439.972351,87.019974 
	C439.899384,88.844559 440.478271,90.916481 439.803223,92.455887 
	C437.393188,97.951675 437.367981,102.687500 441.419189,107.704407 
	C442.758942,109.363510 442.461761,113.444862 441.345215,115.610344 
	C440.566864,117.119911 437.151489,117.743462 434.854889,117.901184 
	C429.530823,118.266792 424.766571,119.253319 422.074646,123.973846 
	C424.047607,126.880592 426.203827,129.113571 427.146606,131.776245 
	C427.781372,133.568954 427.375000,136.452866 426.259857,138.004456 
	C423.157715,142.320663 420.998505,141.873093 419.464691,136.734375 
	C418.340729,132.968704 415.779785,129.935104 416.424805,125.157043 
	C416.980682,121.039124 411.347778,121.946922 408.437683,121.351913 
	C407.092255,121.076813 405.172699,123.609711 402.462585,125.667381 
	C398.225250,124.895706 392.355255,124.663101 388.467377,118.816490 
	C387.465485,117.309814 383.985474,117.451057 381.419586,116.459061 
	C382.683960,114.718254 384.172577,113.353676 386.076996,111.607925 
	C383.690552,110.254364 382.031189,109.313202 380.509796,108.450279 
	C374.514893,112.576744 370.833557,112.397400 367.364441,107.846985 
	C370.837097,107.462677 373.928802,107.291809 377.010406,107.010384 
	C380.350250,106.705360 383.680756,106.297310 387.226776,105.619781 
	C388.082764,96.986732 384.837860,90.863243 378.619843,88.664009 
	C371.875671,86.278694 364.177216,88.598602 360.329681,94.175667 
	C354.938416,101.990395 357.918396,111.939011 367.248993,117.275795 
	C366.751007,119.077003 366.300781,120.893341 365.736511,122.673538 
	C365.415741,123.685516 365.142792,125.144783 364.420837,125.478874 
	C363.661865,125.830093 361.992493,125.419312 361.420471,124.746635 
	C359.598969,122.604713 358.102844,120.186104 356.481018,117.874382 
	C356.002594,118.821312 355.524200,119.768242 355.045807,120.715172 
	C349.910614,120.977837 344.775421,121.240501 340.215698,121.473732 
	C339.573608,124.210907 339.076080,126.707130 338.396210,129.152649 
	C336.947968,134.361832 332.420746,129.591217 329.992218,131.681458 
	C327.679138,133.672379 325.911987,136.547562 322.190094,133.024338 
	C320.039978,130.988968 316.531708,130.436050 313.747162,128.998108 
	C312.726471,128.471008 312.030090,127.315842 311.185760,126.447182 
	C312.012573,125.721130 312.792572,124.439484 313.674255,124.365250 
	C317.479950,124.044838 318.411133,121.890640 318.191376,117.837967 
	C319.538910,117.064980 320.843658,116.625343 321.734344,117.051384 
	C328.621735,120.345940 329.813354,119.678909 330.573853,111.998543 
	C332.626343,111.267677 334.309692,110.538193 335.993073,109.808716 
	C335.882355,109.239326 335.771667,108.669937 335.660950,108.100548 
	C333.852325,107.733574 332.043732,107.366600 330.145142,106.548485 
	C330.007599,103.267723 330.163025,100.416763 329.868439,97.613098 
	C329.324524,92.436638 325.901062,88.397018 321.075195,88.270317 
	C316.882263,88.160240 312.624512,89.135918 308.455322,89.941734 
	C305.162231,90.578239 304.342682,92.648026 306.083466,95.970848 
	C304.816467,99.074615 305.350983,100.886162 308.365540,101.571930 
	C301.498444,106.414795 301.169525,110.750992 306.999969,116.909058 
	C304.241547,118.265312 301.509827,120.699928 298.719482,120.769081 
	C291.309387,120.952774 285.067200,123.069756 280.144135,128.833801 
	C279.759705,128.434235 279.375275,128.034683 278.990845,127.635132 
	C280.675598,125.697502 282.360321,123.759880 284.186401,121.659698 
	C282.448639,121.763817 280.436676,122.197708 278.523102,121.929619 
	C275.196167,121.463509 271.954956,120.384995 268.627991,119.919022 
	C266.876526,119.673698 265.019592,120.181007 263.210297,120.348473 
	C263.454712,121.733894 263.701782,123.118858 263.942780,124.504875 
	C264.154327,125.721474 264.359070,126.939262 264.566803,128.156525 
	C262.666565,128.437683 260.766327,128.718842 258.430664,128.598221 
	C256.886749,124.655449 256.886749,124.655449 252.877594,127.435349 
	C254.585052,127.956902 256.292542,128.478455 258.000000,129.000000 
M349.723907,106.903618 
	C350.450256,105.836494 351.176605,104.769363 351.902954,103.702248 
	C350.934082,103.132278 349.965210,102.562302 348.979034,101.121521 
	C348.986633,99.090057 348.994232,97.058586 349.852600,94.873024 
	C355.733521,95.556900 354.081116,91.722389 353.907532,88.370003 
	C351.566620,88.187935 349.482056,88.025803 347.468933,87.869232 
	C346.546021,78.455261 346.546021,78.455261 340.641632,81.562904 
	C338.874786,84.228821 337.107941,86.894737 335.341095,89.560654 
	C334.924194,89.289230 334.507294,89.017799 334.090393,88.746368 
	C334.090393,90.656204 334.090393,92.566040 334.090393,94.529854 
	C335.948303,94.770287 337.519135,94.973579 339.408173,95.218048 
	C339.408173,99.128883 339.343872,102.766098 339.420563,106.400345 
	C339.626770,116.172417 343.484497,119.163467 353.823181,117.342056 
	C353.823181,115.489250 353.823181,113.575096 353.823181,111.419609 
	C352.544495,111.232513 351.276611,111.046997 349.916229,110.198570 
	C349.610016,109.135063 349.303772,108.071556 349.723907,106.903618 
M295.634949,102.101700 
	C296.973022,99.607323 298.311127,97.112938 299.768250,95.367188 
	C299.681122,96.440063 299.593994,97.512947 299.427124,99.567558 
	C300.949829,98.529526 301.772552,97.968651 302.595306,97.407768 
	C301.657593,96.444557 300.719910,95.481354 299.092010,94.009712 
	C299.652863,92.214386 300.213715,90.419060 300.800140,88.541885 
	C292.834534,87.655586 292.866638,87.666946 290.450470,94.495888 
	C289.173279,98.105515 287.761597,101.667549 286.410645,105.251068 
	C285.877502,105.283272 285.344360,105.315475 284.811249,105.347679 
	C282.545929,99.645683 280.280609,93.943680 278.108612,88.476501 
	C275.488373,88.476501 273.106567,88.476501 270.119324,88.476501 
	C274.250885,98.948990 278.173676,108.892265 281.973511,118.523895 
	C286.955994,119.861320 289.668640,118.086952 290.835419,113.547279 
	C291.190826,112.164413 292.071716,110.916611 292.850677,110.377739 
	C293.480560,111.218315 294.110413,112.058884 294.740295,112.899452 
	C295.124542,112.492622 295.508789,112.085793 295.893036,111.678970 
	C294.845642,110.977249 293.798279,110.275528 292.683868,108.914322 
	C293.384277,107.580246 294.084717,106.246178 295.463257,105.236740 
	C297.331451,105.881889 299.199646,106.527039 301.067841,107.172188 
	C301.300446,106.538513 301.533051,105.904846 301.765656,105.271172 
	C299.672974,104.462692 297.580261,103.654213 295.634949,102.101700 
M262.789429,108.848106 
	C264.185913,107.872185 265.582428,106.896271 267.301575,105.260628 
	C268.115936,95.969971 263.334320,89.026123 254.908981,87.031677 
	C249.397934,85.727104 240.967133,91.488335 238.831665,96.959290 
	C236.140564,103.853828 239.054184,113.382835 244.997910,116.804497 
	C251.595734,120.602715 260.064941,118.580193 265.302887,111.797371 
	C264.508881,111.042038 263.700439,110.272934 262.789429,108.848106 
M278.525055,80.875984 
	C277.892242,78.731628 277.259430,76.587273 276.626617,74.442924 
	C274.086761,75.418144 271.546906,76.393356 268.536163,77.549370 
	C270.302612,79.632195 271.371765,80.853203 272.395508,82.111198 
	C273.402374,83.348480 274.363159,84.623276 275.344177,85.881599 
	C276.291687,84.450287 277.239227,83.018974 278.525055,80.875984 
M337.287262,121.381027 
	C335.545380,120.505882 333.803497,119.630745 332.061615,118.755600 
	C331.797638,119.534157 331.533691,120.312714 331.269714,121.091270 
	C333.164642,121.364601 335.059601,121.637932 337.287262,121.381027 
M243.195938,122.760658 
	C243.551361,122.009270 243.906784,121.257874 244.262192,120.506477 
	C242.996460,120.437790 241.730713,120.369102 240.464981,120.300415 
	C240.399307,120.676300 240.333618,121.052185 240.267929,121.428070 
	C241.011642,121.907776 241.755356,122.387482 243.195938,122.760658 
M426.616119,114.365028 
	C426.255829,114.990578 425.895508,115.616127 425.535217,116.241684 
	C425.821259,116.356674 426.107269,116.471664 426.393280,116.586647 
	C426.664673,115.858093 426.936035,115.129539 426.616119,114.365028 
M332.281586,94.463127 
	C332.010834,94.720940 331.737518,94.976387 331.483551,95.249809 
	C331.477051,95.256836 331.682770,95.460922 331.789520,95.573097 
	C332.060272,95.315033 332.331024,95.056969 332.281586,94.463127 
z"/>
<path fill="#015EF7" opacity="1.000000" stroke="none" 
	d="
M56.006615,86.998695 
	C58.577522,81.106560 60.514118,74.827026 63.833488,69.391998 
	C75.702126,49.958702 96.596954,40.628223 118.338234,44.402290 
	C140.548203,48.257721 155.387436,62.170319 161.218216,83.870842 
	C168.296387,110.213852 157.244965,133.747665 134.521286,146.037109 
	C107.108444,160.862503 76.165428,149.809845 61.743866,123.081062 
	C59.191029,118.349663 58.101074,112.828972 56.230648,106.872078 
	C56.086014,99.713829 56.046314,93.356262 56.006615,86.998695 
M111.957695,73.515579 
	C103.431122,79.510551 94.856796,85.440056 86.436699,91.581039 
	C85.349983,92.373604 84.212921,94.636917 84.615967,95.547775 
	C85.135254,96.721329 87.125587,97.732346 88.587006,97.899780 
	C91.709297,98.257500 94.904106,97.919708 98.059380,98.071396 
	C100.686974,98.197716 103.300529,98.615921 105.920303,98.904846 
	C105.947929,99.452950 105.975555,100.001045 106.003181,100.549141 
	C104.730965,101.026482 103.363716,101.343498 102.212906,102.025665 
	C101.031441,102.726006 99.444275,103.593727 99.100067,104.715195 
	C97.011192,111.520966 95.112633,118.392616 93.440872,125.312408 
	C93.121300,126.635193 93.701523,128.655594 94.630791,129.610367 
	C95.145515,130.139221 97.492867,129.494507 98.588303,128.751175 
	C107.076340,122.991570 115.481323,117.108406 123.865829,111.197990 
	C126.981438,109.001732 130.140121,106.811157 132.931198,104.240242 
	C133.897736,103.349937 134.357803,101.175217 134.014343,99.856735 
	C133.787033,98.984108 131.766968,98.247704 130.462311,98.061623 
	C128.340012,97.758926 126.145912,97.979340 123.982872,97.938591 
	C118.897156,97.842781 118.322456,96.653709 119.867470,91.868866 
	C122.148788,84.803688 124.105476,77.626015 125.928291,70.427338 
	C126.268288,69.084595 125.327751,67.417587 124.978180,65.900230 
	C123.478081,66.308395 121.775200,66.395889 120.519241,67.190132 
	C117.728943,68.954666 115.162552,71.073280 111.957695,73.515579 
z"/>
<path fill="#F1F2F2" opacity="1.000000" stroke="none" 
	d="
M421.241638,75.066017 
	C421.638000,75.039848 422.034363,75.013680 422.715790,74.895584 
	C424.715393,74.858971 426.429962,74.914291 428.572510,74.929977 
	C429.000549,74.890343 429.263916,75.173965 429.491821,75.596710 
	C429.707550,85.322922 429.695343,94.626389 429.683105,103.929863 
	C425.275391,115.177513 420.120239,118.761101 409.398163,118.030899 
	C401.830688,117.515541 396.636841,112.900612 394.104980,103.819229 
	C393.955505,93.696930 393.976013,84.348701 393.996521,75.000473 
	C396.368134,75.007568 398.739685,75.014664 401.591003,75.110023 
	C402.070709,75.198288 402.216095,75.186424 402.210388,75.640701 
	C402.452820,85.401741 402.700989,94.708488 402.949158,104.015244 
	C404.014160,108.877037 407.244690,110.124146 411.924561,110.345276 
	C417.137848,110.591614 419.262970,107.734352 420.976715,102.862885 
	C421.139587,93.055954 421.190613,84.060989 421.241638,75.066017 
z"/>
<path fill="#EFEFF0" opacity="1.000000" stroke="none" 
	d="
M306.144653,95.584015 
	C304.342682,92.648026 305.162231,90.578239 308.455322,89.941734 
	C312.624512,89.135918 316.882263,88.160240 321.075195,88.270317 
	C325.901062,88.397018 329.324524,92.436638 329.868439,97.613098 
	C330.163025,100.416763 330.007599,103.267723 330.055786,106.958740 
	C330.105835,109.213402 330.155273,110.606667 330.204712,111.999924 
	C329.813354,119.678909 328.621735,120.345940 321.734344,117.051384 
	C320.843658,116.625343 319.538910,117.064980 318.166016,117.408516 
	C314.530945,117.489693 311.155823,117.265976 307.390320,116.975662 
	C301.169525,110.750992 301.498444,106.414795 308.741943,101.541595 
	C313.602692,100.452492 317.863586,99.674438 322.264832,98.870758 
	C319.954315,93.995926 317.069122,93.262077 311.907471,95.198471 
	C310.181274,95.846069 308.076416,95.484360 306.144653,95.584015 
M319.400513,111.261345 
	C320.281860,109.641312 321.163208,108.021278 322.044525,106.401245 
	C320.490234,106.256401 318.938110,106.075737 317.380829,105.979698 
	C316.390076,105.918594 315.164246,105.619934 314.445648,106.069725 
	C313.104645,106.909073 312.056366,108.216103 310.886292,109.328522 
	C312.025085,110.335091 313.021027,111.809326 314.343872,112.213417 
	C315.603668,112.598251 317.204681,111.866158 319.400513,111.261345 
z"/>
<path fill="#F2F2F2" opacity="1.000000" stroke="none" 
	d="
M367.668152,117.343361 
	C357.918396,111.939011 354.938416,101.990395 360.329681,94.175667 
	C364.177216,88.598602 371.875671,86.278694 378.619843,88.664009 
	C384.837860,90.863243 388.082764,96.986732 386.758240,105.590424 
	C380.194275,105.872826 374.310028,105.841103 368.426483,105.890198 
	C367.128876,105.901031 364.720612,105.447014 366.979065,108.011726 
	C370.833557,112.397400 374.514893,112.576744 380.509796,108.450279 
	C382.031189,109.313202 383.690552,110.254364 386.076996,111.607925 
	C384.172577,113.353676 382.683960,114.718254 380.998291,116.362137 
	C380.801208,116.641434 380.873993,116.658501 380.487213,116.698196 
	C379.518097,117.094963 378.935791,117.452026 378.353455,117.809090 
	C374.931396,117.676369 371.509338,117.543648 367.668152,117.343361 
M370.727814,99.822533 
	C373.619049,99.822533 376.510284,99.822533 379.863495,99.822533 
	C378.170227,94.252785 374.082977,94.623749 370.632599,95.026222 
	C368.829529,95.236526 367.245331,97.323097 365.562317,98.562263 
	C365.842133,98.982803 366.121979,99.403343 366.401825,99.823883 
	C367.549194,99.823883 368.696533,99.823883 370.727814,99.822533 
z"/>
<path fill="#EFEFF0" opacity="1.000000" stroke="none" 
	d="
M224.214996,73.055313 
	C226.677048,72.977043 229.139114,72.898773 231.987457,73.411469 
	C232.363632,88.697548 232.353531,103.392662 232.343445,118.087776 
	C232.100830,118.077347 231.858200,118.066910 231.324417,118.275787 
	C230.180847,118.611153 229.328430,118.727203 228.238129,118.938606 
	C226.788055,118.546967 225.575821,118.059990 224.283951,116.826218 
	C224.207855,101.738052 224.211426,87.396683 224.214996,73.055313 
z"/>
<path fill="#80838B" opacity="1.000000" stroke="none" 
	d="
M501.790100,168.920502 
	C499.377472,170.572510 497.289734,172.105637 495.201996,173.638763 
	C495.949554,173.513184 496.697083,173.387589 497.444641,173.262009 
	C495.373993,171.062119 493.303375,168.862244 491.232727,166.662354 
	C490.950317,167.535568 490.667877,168.408768 490.385468,169.281982 
	C492.797546,167.267838 495.209595,165.253693 497.621674,163.239548 
	C497.109467,162.601547 496.597260,161.963531 496.085052,161.325531 
	C498.095032,163.817566 500.105011,166.309601 501.790100,168.920502 
z"/>
<path fill="#10141D" opacity="1.000000" stroke="none" 
	d="
M55.593689,87.023682 
	C56.046314,93.356262 56.086014,99.713829 56.048080,106.534576 
	C54.988869,106.190559 53.202278,105.425117 53.157898,104.569321 
	C52.893272,99.466896 52.943714,94.340454 53.129089,89.230797 
	C53.156342,88.479599 54.464996,87.774887 55.593689,87.023682 
z"/>
<path fill="#04081D" opacity="1.000000" stroke="none" 
	d="
M188.002350,74.969612 
	C188.002487,74.532707 188.002640,74.095802 188.006973,73.331314 
	C189.396957,73.002914 190.782745,73.002106 192.584564,72.997757 
	C198.124069,73.448441 203.247513,73.902664 208.218445,74.697037 
	C201.378067,75.014656 194.690201,74.992134 188.002350,74.969612 
z"/>
<path fill="#131A29" opacity="1.000000" stroke="none" 
	d="
M378.733215,117.832214 
	C378.935791,117.452026 379.518097,117.094963 380.452515,116.691391 
	C380.240723,117.048370 379.676849,117.451851 378.733215,117.832214 
z"/>
<path fill="#ECEDED" opacity="1.000000" stroke="none" 
	d="
M187.894012,75.099152 
	C194.690201,74.992134 201.378067,75.014656 208.529785,74.968613 
	C211.457077,75.021477 213.920532,75.142914 216.644348,75.277176 
	C216.644348,77.528786 216.644348,79.591064 216.644348,82.309372 
	C210.220901,82.309372 203.943787,82.309372 196.876404,82.686050 
	C196.086136,85.980980 196.086136,88.899239 196.086136,92.343521 
	C202.438904,92.343521 208.680069,92.343521 214.921234,92.343521 
	C215.000534,93.480377 215.036850,94.622177 215.167007,95.753181 
	C215.598724,99.504692 214.133469,101.298424 210.196091,100.866211 
	C208.584946,100.689346 206.936783,100.849754 204.535828,100.863670 
	C201.548935,100.837616 199.331680,100.804619 196.877960,100.430405 
	C196.285721,103.292427 195.929947,106.495674 195.547241,109.941490 
	C199.204132,109.941490 202.092545,109.941490 204.980942,109.941490 
	C206.713669,110.007980 208.446396,110.074478 211.010406,110.110718 
	C213.222534,110.031578 214.603378,109.982697 215.984222,109.933823 
	C216.381577,112.339134 216.778915,114.744453 216.600189,117.476547 
	C206.669922,117.829193 197.315750,117.855049 187.961563,117.880905 
	C187.961563,117.880905 187.817123,117.819046 187.614868,117.439896 
	C187.433548,103.072304 187.454468,89.083855 187.475388,75.095406 
	C187.475388,75.095406 187.785690,75.228691 187.894012,75.099152 
z"/>
<path fill="#F0F0F0" opacity="1.000000" stroke="none" 
	d="
M262.891968,109.503830 
	C263.700439,110.272934 264.508881,111.042038 265.302887,111.797371 
	C260.064941,118.580193 251.595734,120.602715 244.997910,116.804497 
	C239.054184,113.382835 236.140564,103.853828 238.831665,96.959290 
	C240.967133,91.488335 249.397934,85.727104 254.908981,87.031677 
	C263.334320,89.026123 268.115936,95.969971 266.673401,105.571762 
	C260.215393,105.879128 254.385071,105.836304 248.556046,105.904472 
	C247.388382,105.918129 244.724213,105.228806 247.031952,108.389099 
	C251.675415,112.589928 255.424408,112.432526 260.359192,108.363892 
	C261.387146,108.839188 262.139557,109.171509 262.891968,109.503830 
M248.179047,99.838844 
	C251.892502,99.838844 255.605957,99.838844 259.514099,99.838844 
	C258.104218,96.019470 256.678680,94.682045 253.049637,95.101784 
	C250.781067,95.364174 248.674652,97.028244 246.495468,98.063347 
	C246.776474,98.650574 247.057495,99.237793 248.179047,99.838844 
z"/>
<path fill="#EEEEEE" opacity="1.000000" stroke="none" 
	d="
M299.649231,94.618561 
	C298.311127,97.112938 296.973022,99.607323 295.356781,102.672974 
	C294.980804,103.800194 294.882965,104.356155 294.785156,104.912109 
	C294.084717,106.246178 293.384277,107.580246 292.744751,109.296165 
	C292.805603,109.678009 292.711945,109.606949 292.711945,109.606949 
	C292.071716,110.916611 291.190826,112.164413 290.835419,113.547279 
	C289.668640,118.086952 286.955994,119.861320 281.973511,118.523895 
	C278.173676,108.892265 274.250885,98.948990 270.119324,88.476501 
	C273.106567,88.476501 275.488373,88.476501 278.108612,88.476501 
	C280.280609,93.943680 282.545929,99.645683 284.811249,105.347679 
	C285.344360,105.315475 285.877502,105.283272 286.410645,105.251068 
	C287.761597,101.667549 289.173279,98.105515 290.450470,94.495888 
	C292.866638,87.666946 292.834534,87.655586 300.800140,88.541885 
	C300.213715,90.419060 299.652863,92.214386 299.420532,94.311134 
	C299.749084,94.612556 299.649231,94.618561 299.649231,94.618561 
z"/>
<path fill="#EFEFF0" opacity="1.000000" stroke="none" 
	d="
M350.008759,110.861481 
	C351.276611,111.046997 352.544495,111.232513 353.823181,111.419609 
	C353.823181,113.575096 353.823181,115.489250 353.823181,117.342056 
	C343.484497,119.163467 339.626770,116.172417 339.420563,106.400345 
	C339.343872,102.766098 339.408173,99.128883 339.408173,95.218048 
	C337.519135,94.973579 335.948303,94.770287 334.090393,94.529854 
	C334.090393,92.566040 334.090393,90.656204 334.090393,88.746368 
	C334.507294,89.017799 334.924194,89.289230 335.341095,89.560654 
	C337.107941,86.894737 338.874786,84.228821 340.641632,81.562904 
	C346.546021,78.455261 346.546021,78.455261 347.468933,87.869232 
	C349.482056,88.025803 351.566620,88.187935 353.907532,88.370003 
	C354.081116,91.722389 355.733521,95.556900 348.996674,94.902863 
	C347.910767,99.572884 347.574860,104.212936 347.569061,108.853394 
	C347.568207,109.521736 349.156097,110.192070 350.008759,110.861481 
z"/>
<path fill="#111929" opacity="1.000000" stroke="none" 
	d="
M278.355896,81.231827 
	C277.239227,83.018974 276.291687,84.450287 275.344177,85.881607 
	C274.363159,84.623276 273.402374,83.348480 272.395508,82.111198 
	C271.371765,80.853203 270.302612,79.632195 268.536163,77.549370 
	C271.546906,76.393356 274.086761,75.418144 276.626617,74.442917 
	C277.259430,76.587273 277.892242,78.731628 278.355896,81.231827 
z"/>
<path fill="#00000C" opacity="1.000000" stroke="none" 
	d="
M232.648651,117.760635 
	C232.353531,103.392662 232.363632,88.697548 232.372437,73.541908 
	C232.913986,74.165588 233.919693,75.245857 233.928970,76.334618 
	C234.036453,88.960434 234.018417,101.587685 233.945312,114.214043 
	C233.939087,115.289070 233.299316,116.360435 232.648651,117.760635 
z"/>
<path fill="#111929" opacity="1.000000" stroke="none" 
	d="
M306.083466,95.970840 
	C308.076416,95.484360 310.181274,95.846069 311.907471,95.198471 
	C317.069122,93.262077 319.954315,93.995926 322.264832,98.870758 
	C317.863586,99.674438 313.602692,100.452492 308.965393,101.260880 
	C305.350983,100.886162 304.816467,99.074615 306.083466,95.970840 
z"/>
<path fill="#000110" opacity="1.000000" stroke="none" 
	d="
M393.742310,75.051682 
	C393.976013,84.348701 393.955505,93.696930 393.896729,103.510773 
	C393.238251,102.500816 392.115814,101.036720 392.081818,99.547775 
	C391.902222,91.683441 391.996826,83.812851 392.242432,75.478432 
	C392.488586,75.012436 392.972870,75.042969 392.972870,75.042969 
	C393.144592,75.062935 393.316345,75.082909 393.742310,75.051682 
z"/>
<path fill="#111929" opacity="1.000000" stroke="none" 
	d="
M431.050903,81.998077 
	C432.120087,82.864815 434.180054,83.842308 434.097565,84.580330 
	C433.563416,89.359268 435.845398,94.655525 431.401062,98.454712 
	C431.026703,92.710587 431.038818,87.354324 431.050903,81.998077 
z"/>
<path fill="#000000" opacity="1.000000" stroke="none" 
	d="
M223.872299,73.299927 
	C224.211426,87.396683 224.207855,101.738052 224.098511,116.537231 
	C223.715164,116.593246 223.193130,116.190056 223.195419,115.789879 
	C223.276291,101.707916 223.406418,87.626251 223.872299,73.299927 
z"/>
<path fill="#000000" opacity="1.000000" stroke="none" 
	d="
M187.102875,75.304726 
	C187.454468,89.083855 187.433548,103.072304 187.576141,117.508255 
	C187.161331,116.888214 186.089478,115.825027 186.080017,114.752472 
	C185.970169,102.275101 186.010803,89.796272 186.058258,77.318008 
	C186.060547,76.715843 186.496414,76.115326 187.102875,75.304726 
z"/>
<path fill="#111929" opacity="1.000000" stroke="none" 
	d="
M200.998047,90.950104 
	C200.998047,88.958527 200.998047,86.966942 200.998047,84.635292 
	C204.077667,86.387955 207.457947,88.311722 210.466034,90.610001 
	C207.061920,90.973038 204.029984,90.961571 200.998047,90.950104 
z"/>
<path fill="#111929" opacity="1.000000" stroke="none" 
	d="
M197.114426,100.771622 
	C199.331680,100.804619 201.548935,100.837616 204.108551,100.958710 
	C203.994858,102.000717 203.586166,103.747513 203.074966,103.778046 
	C200.068115,103.957687 199.845917,105.812683 199.596481,108.499718 
	C194.794632,107.148987 197.894714,103.466202 197.114426,100.771622 
z"/>
<path fill="#1D2334" opacity="1.000000" stroke="none" 
	d="
M349.962494,110.530029 
	C349.156097,110.192070 347.568207,109.521736 347.569061,108.853394 
	C347.574860,104.212936 347.910767,99.572884 348.571289,94.979912 
	C348.994232,97.058586 348.986633,99.090057 348.979431,101.974968 
	C348.985718,104.221626 348.991638,105.614838 348.997559,107.008049 
	C349.303772,108.071556 349.610016,109.135063 349.962494,110.530029 
z"/>
<path fill="#030305" opacity="1.000000" stroke="none" 
	d="
M188.239517,118.201797 
	C197.315750,117.855049 206.669922,117.829193 216.489517,117.818527 
	C216.265549,118.216476 215.573273,118.936714 214.887238,118.930817 
	C206.096786,118.855232 197.307251,118.675797 188.239517,118.201797 
z"/>
<path fill="#000013" opacity="1.000000" stroke="none" 
	d="
M403.254852,103.726234 
	C402.700989,94.708488 402.452820,85.401741 402.653839,75.603668 
	C403.397675,75.077812 403.692352,75.043289 403.987000,75.008774 
	C403.844849,84.484924 403.702698,93.961075 403.254852,103.726234 
z"/>
<path fill="#000001" opacity="1.000000" stroke="none" 
	d="
M431.033936,81.570107 
	C431.038818,87.354324 431.026703,92.710587 431.033234,98.534401 
	C430.817963,100.519791 430.584076,102.037621 430.016663,103.742661 
	C429.695343,94.626389 429.707550,85.322922 429.681732,75.559502 
	C430.101471,77.113747 430.559235,79.127945 431.033936,81.570107 
z"/>
<path fill="#000000" opacity="1.000000" stroke="none" 
	d="
M420.894989,75.304817 
	C421.190613,84.060989 421.139587,93.055954 420.967529,102.502441 
	C420.747101,93.817169 420.647705,84.680397 420.894989,75.304817 
z"/>
<path fill="#000000" opacity="1.000000" stroke="none" 
	d="
M200.580704,90.964172 
	C204.029984,90.961571 207.061920,90.973038 210.547943,90.965736 
	C212.191879,91.196037 213.381729,91.445107 214.746399,92.018845 
	C208.680069,92.343521 202.438904,92.343521 196.086136,92.343521 
	C196.086136,88.899239 196.086136,85.980980 196.502258,82.865974 
	C196.948715,84.427887 196.589111,86.321159 197.134811,87.901901 
	C197.558624,89.129539 199.112030,89.967232 200.580704,90.964172 
z"/>
<path fill="#04040A" opacity="1.000000" stroke="none" 
	d="
M246.950378,108.012726 
	C244.724213,105.228806 247.388382,105.918129 248.556046,105.904472 
	C254.385071,105.836304 260.215393,105.879128 266.512085,105.901627 
	C265.582428,106.896271 264.185913,107.872185 262.840698,109.175972 
	C262.139557,109.171509 261.387146,108.839188 260.077271,108.051636 
	C255.330002,107.735168 251.140182,107.873947 246.950378,108.012726 
z"/>
<path fill="#111929" opacity="1.000000" stroke="none" 
	d="
M330.573853,111.998543 
	C330.155273,110.606667 330.105835,109.213402 330.145752,107.409882 
	C332.043732,107.366600 333.852325,107.733574 335.660950,108.100548 
	C335.771667,108.669937 335.882355,109.239326 335.993073,109.808716 
	C334.309692,110.538193 332.626343,111.267677 330.573853,111.998543 
z"/>
<path fill="#05060A" opacity="1.000000" stroke="none" 
	d="
M367.364441,107.846985 
	C364.720612,105.447014 367.128876,105.901031 368.426483,105.890198 
	C374.310028,105.841103 380.194275,105.872826 386.546783,105.904831 
	C383.680756,106.297310 380.350250,106.705360 377.010406,107.010384 
	C373.928802,107.291809 370.837097,107.462677 367.364441,107.846985 
z"/>
<path fill="#111929" opacity="1.000000" stroke="none" 
	d="
M295.124207,105.074425 
	C294.882965,104.356155 294.980804,103.800194 295.283081,103.044983 
	C297.580261,103.654213 299.672974,104.462692 301.765656,105.271172 
	C301.533051,105.904846 301.300446,106.538513 301.067841,107.172188 
	C299.199646,106.527039 297.331451,105.881889 295.124207,105.074425 
z"/>
<path fill="#111929" opacity="1.000000" stroke="none" 
	d="
M257.997620,128.598221 
	C256.292542,128.478455 254.585052,127.956902 252.877594,127.435349 
	C256.886749,124.655449 256.886749,124.655449 257.997620,128.598221 
z"/>
<path fill="#000008" opacity="1.000000" stroke="none" 
	d="
M196.877960,100.430405 
	C197.894714,103.466202 194.794632,107.148987 199.597046,108.914001 
	C201.492477,109.071587 202.981140,109.238029 204.725372,109.672974 
	C202.092545,109.941490 199.204132,109.941490 195.547241,109.941490 
	C195.929947,106.495674 196.285721,103.292427 196.877960,100.430405 
z"/>
<path fill="#111929" opacity="1.000000" stroke="none" 
	d="
M337.120911,121.646149 
	C335.059601,121.637932 333.164642,121.364601 331.269714,121.091270 
	C331.533691,120.312714 331.797638,119.534157 332.061615,118.755600 
	C333.803497,119.630745 335.545380,120.505882 337.120911,121.646149 
z"/>
<path fill="#111929" opacity="1.000000" stroke="none" 
	d="
M349.360718,106.955833 
	C348.991638,105.614838 348.985718,104.221626 348.988068,102.410370 
	C349.965210,102.562302 350.934082,103.132278 351.902954,103.702240 
	C351.176605,104.769363 350.450256,105.836494 349.360718,106.955833 
z"/>
<path fill="#111929" opacity="1.000000" stroke="none" 
	d="
M242.847504,122.813919 
	C241.755356,122.387482 241.011642,121.907776 240.267929,121.428070 
	C240.333618,121.052185 240.399307,120.676300 240.464981,120.300415 
	C241.730713,120.369102 242.996460,120.437790 244.262192,120.506477 
	C243.906784,121.257874 243.551361,122.009270 242.847504,122.813919 
z"/>
<path fill="#111929" opacity="1.000000" stroke="none" 
	d="
M299.765625,94.565353 
	C300.719910,95.481354 301.657593,96.444557 302.595306,97.407768 
	C301.772552,97.968651 300.949829,98.529526 299.427124,99.567558 
	C299.593994,97.512947 299.681122,96.440063 299.708740,94.992874 
	C299.649231,94.618561 299.749084,94.612556 299.765625,94.565353 
z"/>
<path fill="#111929" opacity="1.000000" stroke="none" 
	d="
M292.778259,109.625908 
	C293.798279,110.275528 294.845642,110.977249 295.893036,111.678970 
	C295.508789,112.085793 295.124542,112.492622 294.740295,112.899452 
	C294.110413,112.058884 293.480560,111.218315 292.781311,109.992340 
	C292.711945,109.606949 292.805603,109.678009 292.778259,109.625908 
z"/>
<path fill="#111929" opacity="1.000000" stroke="none" 
	d="
M426.911743,114.383003 
	C426.936035,115.129539 426.664673,115.858093 426.393311,116.586655 
	C426.107269,116.471664 425.821259,116.356674 425.535217,116.241684 
	C425.895508,115.616127 426.255829,114.990578 426.911743,114.383003 
z"/>
<path fill="#111929" opacity="1.000000" stroke="none" 
	d="
M404.210144,74.812424 
	C403.692352,75.043289 403.397675,75.077812 402.659546,75.149384 
	C402.216095,75.186424 402.070709,75.198288 402.034729,75.134842 
	C402.580231,74.441048 403.161743,73.810699 403.743286,73.180344 
	C403.973267,73.658920 404.203278,74.137497 404.210144,74.812424 
z"/>
<path fill="#000008" opacity="1.000000" stroke="none" 
	d="
M215.752289,109.674942 
	C214.603378,109.982697 213.222534,110.031578 211.433029,110.007309 
	C212.523041,109.761459 214.021698,109.588760 215.752289,109.674942 
z"/>
<path fill="#111929" opacity="1.000000" stroke="none" 
	d="
M393.093872,74.759193 
	C392.972870,75.042969 392.488586,75.012436 392.246033,75.010292 
	C392.322388,74.166298 392.641357,73.324448 392.960327,72.482590 
	C393.045166,73.146873 393.130005,73.811142 393.093872,74.759193 
z"/>
<path fill="#111929" opacity="1.000000" stroke="none" 
	d="
M332.441650,94.631012 
	C332.331024,95.056969 332.060272,95.315033 331.789520,95.573097 
	C331.682770,95.460922 331.477051,95.256836 331.483551,95.249809 
	C331.737518,94.976387 332.010834,94.720940 332.441650,94.631012 
z"/>
<path fill="#101D35" opacity="1.000000" stroke="none" 
	d="
M112.231293,73.281570 
	C115.162552,71.073280 117.728943,68.954666 120.519241,67.190132 
	C121.775200,66.395889 123.478081,66.308395 124.978180,65.900230 
	C125.327751,67.417587 126.268288,69.084595 125.928291,70.427338 
	C124.105476,77.626015 122.148788,84.803688 119.867470,91.868866 
	C118.322456,96.653709 118.897156,97.842781 123.982872,97.938591 
	C126.145912,97.979340 128.340012,97.758926 130.462311,98.061623 
	C131.766968,98.247704 133.787033,98.984108 134.014343,99.856735 
	C134.357803,101.175217 133.897736,103.349937 132.931198,104.240242 
	C130.140121,106.811157 126.981438,109.001732 123.865829,111.197990 
	C115.481323,117.108406 107.076340,122.991570 98.588303,128.751175 
	C97.492867,129.494507 95.145515,130.139221 94.630791,129.610367 
	C93.701523,128.655594 93.121300,126.635193 93.440872,125.312408 
	C95.112633,118.392616 97.011192,111.520966 99.100067,104.715195 
	C99.444275,103.593727 101.031441,102.726006 102.212906,102.025665 
	C103.363716,101.343498 104.730965,101.026482 106.003181,100.549141 
	C105.975555,100.001045 105.947929,99.452950 105.920303,98.904846 
	C103.300529,98.615921 100.686974,98.197716 98.059380,98.071396 
	C94.904106,97.919708 91.709297,98.257500 88.587006,97.899780 
	C87.125587,97.732346 85.135254,96.721329 84.615967,95.547775 
	C84.212921,94.636917 85.349983,92.373604 86.436699,91.581039 
	C94.856796,85.440056 103.431122,79.510551 112.231293,73.281570 
z"/>
<path fill="#18202D" opacity="1.000000" stroke="none" 
	d="
M319.028076,111.443237 
	C317.204681,111.866158 315.603668,112.598251 314.343872,112.213417 
	C313.021027,111.809326 312.025085,110.335091 310.886292,109.328522 
	C312.056366,108.216103 313.104645,106.909073 314.445648,106.069725 
	C315.164246,105.619934 316.390076,105.918594 317.380829,105.979698 
	C318.938110,106.075737 320.490234,106.256401 322.044525,106.401245 
	C321.163208,108.021278 320.281860,109.641312 319.028076,111.443237 
z"/>
<path fill="#16192B" opacity="1.000000" stroke="none" 
	d="
M370.285828,99.823212 
	C368.696533,99.823883 367.549194,99.823883 366.401825,99.823883 
	C366.121979,99.403343 365.842133,98.982803 365.562317,98.562263 
	C367.245331,97.323097 368.829529,95.236526 370.632599,95.026222 
	C374.082977,94.623749 378.170227,94.252785 379.863495,99.822533 
	C376.510284,99.822533 373.619049,99.822533 370.285828,99.823212 
z"/>
<path fill="#192030" opacity="1.000000" stroke="none" 
	d="
M247.758774,99.831932 
	C247.057495,99.237793 246.776474,98.650574 246.495468,98.063339 
	C248.674652,97.028244 250.781067,95.364174 253.049637,95.101784 
	C256.678680,94.682045 258.104218,96.019470 259.514099,99.838844 
	C255.605957,99.838844 251.892502,99.838844 247.758774,99.831932 
z"/>
<path fill="#161E2E" opacity="1.000000" stroke="none" 
	d="
M247.031952,108.389099 
	C251.140182,107.873947 255.330002,107.735168 259.801758,107.908661 
	C255.424408,112.432526 251.675415,112.589928 247.031952,108.389099 
z"/>
</svg>